<?xml version="1.0" encoding="UTF-8" standalone="no"?>
<!DOCTYPE svg PUBLIC "-//W3C//DTD SVG 1.1//EN"
 "http://www.w3.org/Graphics/SVG/1.1/DTD/svg11.dtd">
<!-- Generated by graphviz version 2.43.0 (0)
 -->
<!-- Title: Project Pages: 1 -->
<svg width="904pt" height="559pt"
 viewBox="0.00 0.00 904.00 559.00" xmlns="http://www.w3.org/2000/svg" xmlns:xlink="http://www.w3.org/1999/xlink">
<g id="graph0" class="graph" transform="scale(1 1) rotate(0) translate(4 555)">
<title>Project</title>
<polygon fill="white" stroke="transparent" points="-4,4 -4,-555 900,-555 900,4 -4,4"/>
<g id="clust1" class="cluster">
<title>cluster PeripheralBlocks</title>
<polygon fill="none" stroke="black" points="8,-8 8,-543 158,-543 158,-8 8,-8"/>
<text text-anchor="middle" x="83" y="-527.8" font-family="Times,serif" font-size="14.00">Peripheral Blocks</text>
</g>
<g id="clust2" class="cluster">
<title>cluster ArchitectureBlocks</title>
<polygon fill="none" stroke="black" points="178,-157 178,-394 335,-394 335,-157 178,-157"/>
<text text-anchor="middle" x="256.5" y="-378.8" font-family="Times,serif" font-size="14.00">Architecture Blocks</text>
</g>
<g id="clust3" class="cluster">
<title>cluster EnvironmentBlocks</title>
<polygon fill="none" stroke="black" points="355,-157 355,-394 516,-394 516,-157 355,-157"/>
<text text-anchor="middle" x="435.5" y="-378.8" font-family="Times,serif" font-size="14.00">Environment Blocks</text>
</g>
<g id="clust4" class="cluster">
<title>cluster AcceleratorBlocks</title>
<polygon fill="none" stroke="black" points="536,-157 536,-394 685,-394 685,-157 536,-157"/>
<text text-anchor="middle" x="610.5" y="-378.8" font-family="Times,serif" font-size="14.00">Accelerator Blocks</text>
</g>
<g id="clust5" class="cluster">
<title>cluster TargetBlocks</title>
<polygon fill="none" stroke="black" points="705,-8 705,-543 888,-543 888,-8 705,-8"/>
<text text-anchor="middle" x="796.5" y="-527.8" font-family="Times,serif" font-size="14.00">Target Blocks</text>
</g>
<!-- MPSoC-DBG -->
<g id="node1" class="node">
<title>MPSoC-DBG</title>
<polygon fill="none" stroke="black" points="28.5,-131 28.5,-169 137.5,-169 137.5,-131 28.5,-131"/>
<text text-anchor="middle" x="83" y="-153.8" font-family="Times,serif" font-size="14.00">MPSoC-DBG</text>
<text text-anchor="middle" x="83" y="-138.8" font-family="Times,serif" font-size="14.00">Peripheral</text>
</g>
<!-- MPSoC-MSP430 -->
<g id="node10" class="node">
<title>MPSoC-MSP430</title>
<polygon fill="none" stroke="black" points="188,-165.5 188,-218.5 325,-218.5 325,-165.5 188,-165.5"/>
<text text-anchor="middle" x="256.5" y="-203.3" font-family="Times,serif" font-size="14.00">MPSoC-MSP430</text>
<text text-anchor="middle" x="256.5" y="-188.3" font-family="Times,serif" font-size="14.00">Architecture</text>
<text text-anchor="middle" x="256.5" y="-173.3" font-family="Times,serif" font-size="14.00">msp430&#45;pvt</text>
</g>
<!-- MPSoC-DBG&#45;&gt;MPSoC-MSP430 -->
<g id="edge1" class="edge">
<title>MPSoC-DBG&#45;&gt;MPSoC-MSP430</title>
<path fill="none" stroke="black" d="M137.79,-163.17C150.6,-166.31 164.51,-169.72 178.14,-173.06"/>
<polygon fill="black" stroke="black" points="177.45,-176.49 188,-175.47 179.12,-169.69 177.45,-176.49"/>
</g>
<!-- SoC-MSP430 -->
<g id="node11" class="node">
<title>SoC-MSP430</title>
<polygon fill="none" stroke="black" points="200,-237.5 200,-290.5 313,-290.5 313,-237.5 200,-237.5"/>
<text text-anchor="middle" x="256.5" y="-275.3" font-family="Times,serif" font-size="14.00">SoC-MSP430</text>
<text text-anchor="middle" x="256.5" y="-260.3" font-family="Times,serif" font-size="14.00">Architecture</text>
<text text-anchor="middle" x="256.5" y="-245.3" font-family="Times,serif" font-size="14.00">msp430&#45;pv</text>
</g>
<!-- MPSoC-DBG&#45;&gt;SoC-MSP430 -->
<g id="edge10" class="edge">
<title>MPSoC-DBG&#45;&gt;SoC-MSP430</title>
<path fill="none" stroke="black" d="M137.72,-164.93C145.15,-168.66 152.2,-173.28 158,-179 174.75,-195.52 161.77,-210.98 178,-228 181.9,-232.09 186.36,-235.77 191.13,-239.05"/>
<polygon fill="black" stroke="black" points="189.64,-242.25 199.98,-244.56 193.33,-236.3 189.64,-242.25"/>
</g>
<!-- PU-MSP430 -->
<g id="node12" class="node">
<title>PU-MSP430</title>
<polygon fill="none" stroke="black" points="203.5,-309.5 203.5,-362.5 309.5,-362.5 309.5,-309.5 203.5,-309.5"/>
<text text-anchor="middle" x="256.5" y="-347.3" font-family="Times,serif" font-size="14.00">PU-MSP430</text>
<text text-anchor="middle" x="256.5" y="-332.3" font-family="Times,serif" font-size="14.00">Architecture</text>
<text text-anchor="middle" x="256.5" y="-317.3" font-family="Times,serif" font-size="14.00">msp430&#45;p</text>
</g>
<!-- MPSoC-DBG&#45;&gt;PU-MSP430 -->
<g id="edge19" class="edge">
<title>MPSoC-DBG&#45;&gt;PU-MSP430</title>
<path fill="none" stroke="black" d="M137.81,-163.27C145.5,-167.22 152.62,-172.35 158,-179 192.3,-221.36 145.02,-256.6 178,-300 182.51,-305.93 188.22,-310.92 194.5,-315.1"/>
<polygon fill="black" stroke="black" points="192.97,-318.26 203.36,-320.33 196.53,-312.23 192.97,-318.26"/>
</g>
<!-- MPSoC-DMA -->
<g id="node2" class="node">
<title>MPSoC-DMA</title>
<polygon fill="none" stroke="black" points="27.5,-74 27.5,-112 138.5,-112 138.5,-74 27.5,-74"/>
<text text-anchor="middle" x="83" y="-96.8" font-family="Times,serif" font-size="14.00">MPSoC-DMA</text>
<text text-anchor="middle" x="83" y="-81.8" font-family="Times,serif" font-size="14.00">Peripheral</text>
</g>
<!-- MPSoC-DMA&#45;&gt;MPSoC-MSP430 -->
<g id="edge2" class="edge">
<title>MPSoC-DMA&#45;&gt;MPSoC-MSP430</title>
<path fill="none" stroke="black" d="M137.28,-112.02C144.38,-115.09 151.45,-118.44 158,-122 177.51,-132.61 197.67,-146.51 214.56,-159.13"/>
<polygon fill="black" stroke="black" points="212.49,-161.96 222.57,-165.21 216.72,-156.38 212.49,-161.96"/>
</g>
<!-- MPSoC-DMA&#45;&gt;SoC-MSP430 -->
<g id="edge11" class="edge">
<title>MPSoC-DMA&#45;&gt;SoC-MSP430</title>
<path fill="none" stroke="black" d="M138.79,-106.95C146.08,-110.81 152.81,-115.73 158,-122 188.59,-158.92 148.56,-190.16 178,-228 181.74,-232.8 186.26,-236.99 191.23,-240.63"/>
<polygon fill="black" stroke="black" points="189.65,-243.78 199.95,-246.27 193.45,-237.9 189.65,-243.78"/>
</g>
<!-- MPSoC-DMA&#45;&gt;PU-MSP430 -->
<g id="edge20" class="edge">
<title>MPSoC-DMA&#45;&gt;PU-MSP430</title>
<path fill="none" stroke="black" d="M138.85,-106.42C146.22,-110.35 152.96,-115.43 158,-122 206.47,-185.15 131.49,-235.39 178,-300 182.41,-306.13 188.13,-311.24 194.46,-315.5"/>
<polygon fill="black" stroke="black" points="193.02,-318.71 203.41,-320.8 196.59,-312.69 193.02,-318.71"/>
</g>
<!-- MPSoC-GPIO -->
<g id="node3" class="node">
<title>MPSoC-GPIO</title>
<polygon fill="none" stroke="black" points="26.5,-473 26.5,-511 139.5,-511 139.5,-473 26.5,-473"/>
<text text-anchor="middle" x="83" y="-495.8" font-family="Times,serif" font-size="14.00">MPSoC-GPIO</text>
<text text-anchor="middle" x="83" y="-480.8" font-family="Times,serif" font-size="14.00">Peripheral</text>
</g>
<!-- MPSoC-GPIO&#45;&gt;MPSoC-MSP430 -->
<g id="edge3" class="edge">
<title>MPSoC-GPIO&#45;&gt;MPSoC-MSP430</title>
<path fill="none" stroke="black" d="M139.71,-479.07C146.77,-475.27 153.2,-470.36 158,-464 189.72,-422 147.84,-271.13 178,-228 178.88,-226.75 179.81,-225.54 180.79,-224.37"/>
<polygon fill="black" stroke="black" points="183.33,-226.78 187.92,-217.23 178.38,-221.83 183.33,-226.78"/>
</g>
<!-- MPSoC-GPIO&#45;&gt;SoC-MSP430 -->
<g id="edge12" class="edge">
<title>MPSoC-GPIO&#45;&gt;SoC-MSP430</title>
<path fill="none" stroke="black" d="M139.5,-478.91C146.59,-475.13 153.08,-470.27 158,-464 203.32,-406.23 134.82,-359.39 178,-300 181.72,-294.88 186.35,-290.47 191.49,-286.67"/>
<polygon fill="black" stroke="black" points="193.44,-289.58 199.92,-281.19 189.63,-283.71 193.44,-289.58"/>
</g>
<!-- MPSoC-GPIO&#45;&gt;PU-MSP430 -->
<g id="edge21" class="edge">
<title>MPSoC-GPIO&#45;&gt;PU-MSP430</title>
<path fill="none" stroke="black" d="M139.56,-474.95C146.07,-471.82 152.38,-468.19 158,-464 191.34,-439.14 218.88,-399.9 236.09,-371.42"/>
<polygon fill="black" stroke="black" points="239.23,-372.97 241.31,-362.58 233.21,-369.41 239.23,-372.97"/>
</g>
<!-- MPSoC-MPI -->
<g id="node4" class="node">
<title>MPSoC-MPI</title>
<polygon fill="none" stroke="black" points="30.5,-416 30.5,-454 135.5,-454 135.5,-416 30.5,-416"/>
<text text-anchor="middle" x="83" y="-438.8" font-family="Times,serif" font-size="14.00">MPSoC-MPI</text>
<text text-anchor="middle" x="83" y="-423.8" font-family="Times,serif" font-size="14.00">Peripheral</text>
</g>
<!-- MPSoC-MPI&#45;&gt;MPSoC-MSP430 -->
<g id="edge4" class="edge">
<title>MPSoC-MPI&#45;&gt;MPSoC-MSP430</title>
<path fill="none" stroke="black" d="M135.84,-423.81C144.37,-419.81 152.27,-414.38 158,-407 207.09,-343.77 131.25,-292.98 178,-228 178.78,-226.92 179.6,-225.86 180.46,-224.84"/>
<polygon fill="black" stroke="black" points="183.1,-227.15 187.7,-217.6 178.15,-222.2 183.1,-227.15"/>
</g>
<!-- MPSoC-MPI&#45;&gt;SoC-MSP430 -->
<g id="edge13" class="edge">
<title>MPSoC-MPI&#45;&gt;SoC-MSP430</title>
<path fill="none" stroke="black" d="M135.79,-423.29C144.21,-419.34 152.09,-414.06 158,-407 189.05,-369.9 148.32,-338.21 178,-300 181.73,-295.2 186.25,-291.01 191.22,-287.36"/>
<polygon fill="black" stroke="black" points="193.44,-290.09 199.94,-281.72 189.64,-284.22 193.44,-290.09"/>
</g>
<!-- MPSoC-MPI&#45;&gt;PU-MSP430 -->
<g id="edge22" class="edge">
<title>MPSoC-MPI&#45;&gt;PU-MSP430</title>
<path fill="none" stroke="black" d="M135.75,-417.46C143.36,-414.3 150.99,-410.79 158,-407 177.95,-396.22 198.46,-381.85 215.5,-368.87"/>
<polygon fill="black" stroke="black" points="217.8,-371.51 223.56,-362.63 213.51,-365.98 217.8,-371.51"/>
</g>
<!-- MPSoC-MPRAM -->
<g id="node5" class="node">
<title>MPSoC-MPRAM</title>
<polygon fill="none" stroke="black" points="16,-359 16,-397 150,-397 150,-359 16,-359"/>
<text text-anchor="middle" x="83" y="-381.8" font-family="Times,serif" font-size="14.00">MPSoC-MPRAM</text>
<text text-anchor="middle" x="83" y="-366.8" font-family="Times,serif" font-size="14.00">Peripheral</text>
</g>
<!-- MPSoC-MPRAM&#45;&gt;MPSoC-MSP430 -->
<g id="edge5" class="edge">
<title>MPSoC-MPRAM&#45;&gt;MPSoC-MSP430</title>
<path fill="none" stroke="black" d="M148.76,-358.77C152.17,-356.2 155.3,-353.3 158,-350 192.8,-307.48 144.78,-271.77 178,-228 178.81,-226.94 179.65,-225.9 180.53,-224.9"/>
<polygon fill="black" stroke="black" points="183.16,-227.23 187.92,-217.77 178.3,-222.19 183.16,-227.23"/>
</g>
<!-- MPSoC-MPRAM&#45;&gt;SoC-MSP430 -->
<g id="edge14" class="edge">
<title>MPSoC-MPRAM&#45;&gt;SoC-MSP430</title>
<path fill="none" stroke="black" d="M146.56,-358.96C150.69,-356.34 154.57,-353.37 158,-350 175.08,-333.24 161.54,-317.38 178,-300 181.89,-295.89 186.34,-292.21 191.1,-288.92"/>
<polygon fill="black" stroke="black" points="193.3,-291.67 199.94,-283.4 189.6,-285.73 193.3,-291.67"/>
</g>
<!-- MPSoC-MPRAM&#45;&gt;PU-MSP430 -->
<g id="edge23" class="edge">
<title>MPSoC-MPRAM&#45;&gt;PU-MSP430</title>
<path fill="none" stroke="black" d="M150.31,-361.76C164.49,-358.29 179.42,-354.63 193.44,-351.2"/>
<polygon fill="black" stroke="black" points="194.58,-354.52 203.46,-348.74 192.91,-347.72 194.58,-354.52"/>
</g>
<!-- MPSoC-MSI -->
<g id="node6" class="node">
<title>MPSoC-MSI</title>
<polygon fill="none" stroke="black" points="30.5,-302 30.5,-340 135.5,-340 135.5,-302 30.5,-302"/>
<text text-anchor="middle" x="83" y="-324.8" font-family="Times,serif" font-size="14.00">MPSoC-MSI</text>
<text text-anchor="middle" x="83" y="-309.8" font-family="Times,serif" font-size="14.00">Peripheral</text>
</g>
<!-- MPSoC-MSI&#45;&gt;MPSoC-MSP430 -->
<g id="edge6" class="edge">
<title>MPSoC-MSI&#45;&gt;MPSoC-MSP430</title>
<path fill="none" stroke="black" d="M135.53,-308.55C143.87,-304.67 151.8,-299.61 158,-293 178.69,-270.96 158.13,-250.78 178,-228 178.85,-227.03 179.73,-226.08 180.64,-225.15"/>
<polygon fill="black" stroke="black" points="182.97,-227.76 188.14,-218.51 178.33,-222.52 182.97,-227.76"/>
</g>
<!-- MPSoC-MSI&#45;&gt;SoC-MSP430 -->
<g id="edge15" class="edge">
<title>MPSoC-MSI&#45;&gt;SoC-MSP430</title>
<path fill="none" stroke="black" d="M135.92,-303.74C152.97,-298.08 172.15,-291.7 190.07,-285.75"/>
<polygon fill="black" stroke="black" points="191.49,-288.96 199.88,-282.49 189.29,-282.32 191.49,-288.96"/>
</g>
<!-- MPSoC-MSI&#45;&gt;PU-MSP430 -->
<g id="edge24" class="edge">
<title>MPSoC-MSI&#45;&gt;PU-MSP430</title>
<path fill="none" stroke="black" d="M135.92,-325.54C154.06,-327.13 174.59,-328.92 193.47,-330.57"/>
<polygon fill="black" stroke="black" points="193.19,-334.06 203.46,-331.45 193.8,-327.09 193.19,-334.06"/>
</g>
<!-- MPSoC-NoC -->
<g id="node7" class="node">
<title>MPSoC-NoC</title>
<polygon fill="none" stroke="black" points="29.5,-17 29.5,-55 136.5,-55 136.5,-17 29.5,-17"/>
<text text-anchor="middle" x="83" y="-39.8" font-family="Times,serif" font-size="14.00">MPSoC-NoC</text>
<text text-anchor="middle" x="83" y="-24.8" font-family="Times,serif" font-size="14.00">Peripheral</text>
</g>
<!-- MPSoC-NoC&#45;&gt;MPSoC-MSP430 -->
<g id="edge7" class="edge">
<title>MPSoC-NoC&#45;&gt;MPSoC-MSP430</title>
<path fill="none" stroke="black" d="M136.86,-51.79C144.32,-55.2 151.61,-59.24 158,-64 191.34,-88.86 218.88,-128.1 236.09,-156.58"/>
<polygon fill="black" stroke="black" points="233.21,-158.59 241.31,-165.42 239.23,-155.03 233.21,-158.59"/>
</g>
<!-- MPSoC-NoC&#45;&gt;SoC-MSP430 -->
<g id="edge16" class="edge">
<title>MPSoC-NoC&#45;&gt;SoC-MSP430</title>
<path fill="none" stroke="black" d="M136.53,-47.59C144.78,-51.55 152.4,-56.87 158,-64 203.32,-121.77 134.82,-168.61 178,-228 181.72,-233.12 186.35,-237.53 191.49,-241.33"/>
<polygon fill="black" stroke="black" points="189.63,-244.29 199.92,-246.81 193.44,-238.42 189.63,-244.29"/>
</g>
<!-- MPSoC-SPRAM -->
<g id="node8" class="node">
<title>MPSoC-SPRAM</title>
<polygon fill="none" stroke="black" points="18,-245 18,-283 148,-283 148,-245 18,-245"/>
<text text-anchor="middle" x="83" y="-267.8" font-family="Times,serif" font-size="14.00">MPSoC-SPRAM</text>
<text text-anchor="middle" x="83" y="-252.8" font-family="Times,serif" font-size="14.00">Peripheral</text>
</g>
<!-- MPSoC-SPRAM&#45;&gt;MPSoC-MSP430 -->
<g id="edge8" class="edge">
<title>MPSoC-SPRAM&#45;&gt;MPSoC-MSP430</title>
<path fill="none" stroke="black" d="M135.52,-244.98C143.09,-242.05 150.77,-239 158,-236 168.05,-231.84 178.6,-227.27 188.91,-222.72"/>
<polygon fill="black" stroke="black" points="190.56,-225.81 198.27,-218.54 187.72,-219.41 190.56,-225.81"/>
</g>
<!-- MPSoC-SPRAM&#45;&gt;SoC-MSP430 -->
<g id="edge17" class="edge">
<title>MPSoC-SPRAM&#45;&gt;SoC-MSP430</title>
<path fill="none" stroke="black" d="M148.35,-264C161.83,-264 176.07,-264 189.6,-264"/>
<polygon fill="black" stroke="black" points="189.79,-267.5 199.79,-264 189.79,-260.5 189.79,-267.5"/>
</g>
<!-- MPSoC-SPRAM&#45;&gt;PU-MSP430 -->
<g id="edge25" class="edge">
<title>MPSoC-SPRAM&#45;&gt;PU-MSP430</title>
<path fill="none" stroke="black" d="M133.47,-283.06C141.69,-286.32 150.1,-289.71 158,-293 169.66,-297.85 182.03,-303.17 193.91,-308.37"/>
<polygon fill="black" stroke="black" points="192.74,-311.68 203.3,-312.5 195.56,-305.27 192.74,-311.68"/>
</g>
<!-- MPSoC-UART -->
<g id="node9" class="node">
<title>MPSoC-UART</title>
<polygon fill="none" stroke="black" points="25,-188 25,-226 141,-226 141,-188 25,-188"/>
<text text-anchor="middle" x="83" y="-210.8" font-family="Times,serif" font-size="14.00">MPSoC-UART</text>
<text text-anchor="middle" x="83" y="-195.8" font-family="Times,serif" font-size="14.00">Peripheral</text>
</g>
<!-- MPSoC-UART&#45;&gt;MPSoC-MSP430 -->
<g id="edge9" class="edge">
<title>MPSoC-UART&#45;&gt;MPSoC-MSP430</title>
<path fill="none" stroke="black" d="M141.11,-202.01C152.83,-200.98 165.36,-199.88 177.67,-198.81"/>
<polygon fill="black" stroke="black" points="178.28,-202.27 187.94,-197.91 177.67,-195.29 178.28,-202.27"/>
</g>
<!-- MPSoC-UART&#45;&gt;SoC-MSP430 -->
<g id="edge18" class="edge">
<title>MPSoC-UART&#45;&gt;SoC-MSP430</title>
<path fill="none" stroke="black" d="M141.11,-225.98C156.76,-231.18 173.85,-236.86 189.94,-242.21"/>
<polygon fill="black" stroke="black" points="189.21,-245.66 199.81,-245.49 191.42,-239.01 189.21,-245.66"/>
</g>
<!-- MPSoC-UART&#45;&gt;PU-MSP430 -->
<g id="edge26" class="edge">
<title>MPSoC-UART&#45;&gt;PU-MSP430</title>
<path fill="none" stroke="black" d="M141.13,-223.1C147.38,-226.6 153.2,-230.85 158,-236 178.32,-257.8 158.36,-277.58 178,-300 182.77,-305.45 188.54,-310.13 194.76,-314.13"/>
<polygon fill="black" stroke="black" points="193.05,-317.19 203.45,-319.18 196.56,-311.13 193.05,-317.19"/>
</g>
<!-- MPSoC-DV -->
<g id="node13" class="node">
<title>MPSoC-DV</title>
<polygon fill="none" stroke="black" points="380,-165.5 380,-218.5 490,-218.5 490,-165.5 380,-165.5"/>
<text text-anchor="middle" x="435" y="-203.3" font-family="Times,serif" font-size="14.00">MPSoC-DV</text>
<text text-anchor="middle" x="435" y="-188.3" font-family="Times,serif" font-size="14.00">Environment</text>
<text text-anchor="middle" x="435" y="-173.3" font-family="Times,serif" font-size="14.00">msp430&#45;pvt</text>
</g>
<!-- MPSoC-MSP430&#45;&gt;MPSoC-DV -->
<g id="edge29" class="edge">
<title>MPSoC-MSP430&#45;&gt;MPSoC-DV</title>
<path fill="none" stroke="black" d="M325.23,-192C339.79,-192 355.12,-192 369.54,-192"/>
<polygon fill="black" stroke="black" points="369.86,-195.5 379.86,-192 369.86,-188.5 369.86,-195.5"/>
</g>
<!-- SoC-DV -->
<g id="node14" class="node">
<title>SoC-DV</title>
<polygon fill="none" stroke="black" points="380,-237.5 380,-290.5 490,-290.5 490,-237.5 380,-237.5"/>
<text text-anchor="middle" x="435" y="-275.3" font-family="Times,serif" font-size="14.00">SoC-DV</text>
<text text-anchor="middle" x="435" y="-260.3" font-family="Times,serif" font-size="14.00">Environment</text>
<text text-anchor="middle" x="435" y="-245.3" font-family="Times,serif" font-size="14.00">msp430&#45;pv</text>
</g>
<!-- SoC-MSP430&#45;&gt;SoC-DV -->
<g id="edge28" class="edge">
<title>SoC-MSP430&#45;&gt;SoC-DV</title>
<path fill="none" stroke="black" d="M313.35,-264C331.24,-264 351.2,-264 369.65,-264"/>
<polygon fill="black" stroke="black" points="369.72,-267.5 379.72,-264 369.72,-260.5 369.72,-267.5"/>
</g>
<!-- PU-DV -->
<g id="node15" class="node">
<title>PU-DV</title>
<polygon fill="none" stroke="black" points="380,-309.5 380,-362.5 490,-362.5 490,-309.5 380,-309.5"/>
<text text-anchor="middle" x="435" y="-347.3" font-family="Times,serif" font-size="14.00">PU-DV</text>
<text text-anchor="middle" x="435" y="-332.3" font-family="Times,serif" font-size="14.00">Environment</text>
<text text-anchor="middle" x="435" y="-317.3" font-family="Times,serif" font-size="14.00">msp430&#45;p</text>
</g>
<!-- PU-MSP430&#45;&gt;PU-DV -->
<g id="edge27" class="edge">
<title>PU-MSP430&#45;&gt;PU-DV</title>
<path fill="none" stroke="black" d="M309.5,-336C328.38,-336 349.93,-336 369.74,-336"/>
<polygon fill="black" stroke="black" points="369.92,-339.5 379.92,-336 369.92,-332.5 369.92,-339.5"/>
</g>
<!-- MPSoC-NTM -->
<g id="node16" class="node">
<title>MPSoC-NTM</title>
<polygon fill="none" stroke="black" points="545,-165.5 545,-218.5 676,-218.5 676,-165.5 545,-165.5"/>
<text text-anchor="middle" x="610.5" y="-203.3" font-family="Times,serif" font-size="14.00">MPSoC-NTM</text>
<text text-anchor="middle" x="610.5" y="-188.3" font-family="Times,serif" font-size="14.00">Accelerator</text>
<text text-anchor="middle" x="610.5" y="-173.3" font-family="Times,serif" font-size="14.00">msp430&#45;pvt&#45;rnn</text>
</g>
<!-- MPSoC-DV&#45;&gt;MPSoC-NTM -->
<g id="edge32" class="edge">
<title>MPSoC-DV&#45;&gt;MPSoC-NTM</title>
<path fill="none" stroke="black" d="M490.42,-192C504.47,-192 519.84,-192 534.73,-192"/>
<polygon fill="black" stroke="black" points="534.94,-195.5 544.94,-192 534.94,-188.5 534.94,-195.5"/>
</g>
<!-- SoC-NTM -->
<g id="node17" class="node">
<title>SoC-NTM</title>
<polygon fill="none" stroke="black" points="548,-237.5 548,-290.5 673,-290.5 673,-237.5 548,-237.5"/>
<text text-anchor="middle" x="610.5" y="-275.3" font-family="Times,serif" font-size="14.00">SoC-NTM</text>
<text text-anchor="middle" x="610.5" y="-260.3" font-family="Times,serif" font-size="14.00">Accelerator</text>
<text text-anchor="middle" x="610.5" y="-245.3" font-family="Times,serif" font-size="14.00">msp430&#45;pv&#45;rnn</text>
</g>
<!-- SoC-DV&#45;&gt;SoC-NTM -->
<g id="edge31" class="edge">
<title>SoC-DV&#45;&gt;SoC-NTM</title>
<path fill="none" stroke="black" d="M490.42,-264C505.34,-264 521.75,-264 537.49,-264"/>
<polygon fill="black" stroke="black" points="537.71,-267.5 547.71,-264 537.71,-260.5 537.71,-267.5"/>
</g>
<!-- PU-NTM -->
<g id="node18" class="node">
<title>PU-NTM</title>
<polygon fill="none" stroke="black" points="552.5,-309.5 552.5,-362.5 668.5,-362.5 668.5,-309.5 552.5,-309.5"/>
<text text-anchor="middle" x="610.5" y="-347.3" font-family="Times,serif" font-size="14.00">PU-NTM</text>
<text text-anchor="middle" x="610.5" y="-332.3" font-family="Times,serif" font-size="14.00">Accelerator</text>
<text text-anchor="middle" x="610.5" y="-317.3" font-family="Times,serif" font-size="14.00">msp430&#45;p&#45;rnn</text>
</g>
<!-- PU-DV&#45;&gt;PU-NTM -->
<g id="edge30" class="edge">
<title>PU-DV&#45;&gt;PU-NTM</title>
<path fill="none" stroke="black" d="M490.42,-336C506.72,-336 524.79,-336 541.82,-336"/>
<polygon fill="black" stroke="black" points="542.27,-339.5 552.27,-336 542.27,-332.5 542.27,-339.5"/>
</g>
<!-- MPSoC-EnergyTech -->
<g id="node19" class="node">
<title>MPSoC-EnergyTech</title>
<polygon fill="none" stroke="black" points="716,-131 716,-169 877,-169 877,-131 716,-131"/>
<text text-anchor="middle" x="796.5" y="-153.8" font-family="Times,serif" font-size="14.00">MPSoC-EnergyTech</text>
<text text-anchor="middle" x="796.5" y="-138.8" font-family="Times,serif" font-size="14.00">Target</text>
</g>
<!-- MPSoC-NTM&#45;&gt;MPSoC-EnergyTech -->
<g id="edge35" class="edge">
<title>MPSoC-NTM&#45;&gt;MPSoC-EnergyTech</title>
<path fill="none" stroke="black" d="M676.11,-177.25C685.74,-175.05 695.81,-172.75 705.85,-170.46"/>
<polygon fill="black" stroke="black" points="706.88,-173.82 715.85,-168.18 705.32,-166.99 706.88,-173.82"/>
</g>
<!-- MPSoC-FinTech -->
<g id="node22" class="node">
<title>MPSoC-FinTech</title>
<polygon fill="none" stroke="black" points="730.5,-17 730.5,-55 862.5,-55 862.5,-17 730.5,-17"/>
<text text-anchor="middle" x="796.5" y="-39.8" font-family="Times,serif" font-size="14.00">MPSoC-FinTech</text>
<text text-anchor="middle" x="796.5" y="-24.8" font-family="Times,serif" font-size="14.00">Target</text>
</g>
<!-- MPSoC-NTM&#45;&gt;MPSoC-FinTech -->
<g id="edge38" class="edge">
<title>MPSoC-NTM&#45;&gt;MPSoC-FinTech</title>
<path fill="none" stroke="black" d="M624.4,-165.24C639.71,-136.21 667.93,-90.46 705,-64 709.89,-60.51 715.22,-57.45 720.78,-54.76"/>
<polygon fill="black" stroke="black" points="722.54,-57.81 730.29,-50.58 719.73,-51.4 722.54,-57.81"/>
</g>
<!-- MPSoC-DefenseTech -->
<g id="node25" class="node">
<title>MPSoC-DefenseTech</title>
<polygon fill="none" stroke="black" points="713,-74 713,-112 880,-112 880,-74 713,-74"/>
<text text-anchor="middle" x="796.5" y="-96.8" font-family="Times,serif" font-size="14.00">MPSoC-DefenseTech</text>
<text text-anchor="middle" x="796.5" y="-81.8" font-family="Times,serif" font-size="14.00">Target</text>
</g>
<!-- MPSoC-NTM&#45;&gt;MPSoC-DefenseTech -->
<g id="edge41" class="edge">
<title>MPSoC-NTM&#45;&gt;MPSoC-DefenseTech</title>
<path fill="none" stroke="black" d="M641.78,-165.24C659.29,-150.86 682.29,-133.72 705,-122 709.18,-119.84 713.55,-117.81 718.02,-115.89"/>
<polygon fill="black" stroke="black" points="719.34,-119.13 727.29,-112.13 716.71,-112.65 719.34,-119.13"/>
</g>
<!-- SoC-EnergyTech -->
<g id="node20" class="node">
<title>SoC-EnergyTech</title>
<polygon fill="none" stroke="black" points="728,-245 728,-283 865,-283 865,-245 728,-245"/>
<text text-anchor="middle" x="796.5" y="-267.8" font-family="Times,serif" font-size="14.00">SoC-EnergyTech</text>
<text text-anchor="middle" x="796.5" y="-252.8" font-family="Times,serif" font-size="14.00">Target</text>
</g>
<!-- SoC-NTM&#45;&gt;SoC-EnergyTech -->
<g id="edge34" class="edge">
<title>SoC-NTM&#45;&gt;SoC-EnergyTech</title>
<path fill="none" stroke="black" d="M673.03,-264C687.29,-264 702.65,-264 717.51,-264"/>
<polygon fill="black" stroke="black" points="717.7,-267.5 727.7,-264 717.7,-260.5 717.7,-267.5"/>
</g>
<!-- SoC-FinTech -->
<g id="node23" class="node">
<title>SoC-FinTech</title>
<polygon fill="none" stroke="black" points="742.5,-188 742.5,-226 850.5,-226 850.5,-188 742.5,-188"/>
<text text-anchor="middle" x="796.5" y="-210.8" font-family="Times,serif" font-size="14.00">SoC-FinTech</text>
<text text-anchor="middle" x="796.5" y="-195.8" font-family="Times,serif" font-size="14.00">Target</text>
</g>
<!-- SoC-NTM&#45;&gt;SoC-FinTech -->
<g id="edge37" class="edge">
<title>SoC-NTM&#45;&gt;SoC-FinTech</title>
<path fill="none" stroke="black" d="M673.03,-244.94C692.24,-238.99 713.46,-232.42 732.75,-226.44"/>
<polygon fill="black" stroke="black" points="733.83,-229.77 742.35,-223.46 731.76,-223.08 733.83,-229.77"/>
</g>
<!-- SoC-DefenseTech -->
<g id="node26" class="node">
<title>SoC-DefenseTech</title>
<polygon fill="none" stroke="black" points="725,-302 725,-340 868,-340 868,-302 725,-302"/>
<text text-anchor="middle" x="796.5" y="-324.8" font-family="Times,serif" font-size="14.00">SoC-DefenseTech</text>
<text text-anchor="middle" x="796.5" y="-309.8" font-family="Times,serif" font-size="14.00">Target</text>
</g>
<!-- SoC-NTM&#45;&gt;SoC-DefenseTech -->
<g id="edge40" class="edge">
<title>SoC-NTM&#45;&gt;SoC-DefenseTech</title>
<path fill="none" stroke="black" d="M673.11,-283.12C683.74,-286.41 694.69,-289.81 705,-293 711.08,-294.88 717.4,-296.84 723.73,-298.8"/>
<polygon fill="black" stroke="black" points="723.08,-302.26 733.67,-301.88 725.15,-295.58 723.08,-302.26"/>
</g>
<!-- PU-EnergyTech -->
<g id="node21" class="node">
<title>PU-EnergyTech</title>
<polygon fill="none" stroke="black" points="732,-473 732,-511 861,-511 861,-473 732,-473"/>
<text text-anchor="middle" x="796.5" y="-495.8" font-family="Times,serif" font-size="14.00">PU-EnergyTech</text>
<text text-anchor="middle" x="796.5" y="-480.8" font-family="Times,serif" font-size="14.00">Target</text>
</g>
<!-- PU-NTM&#45;&gt;PU-EnergyTech -->
<g id="edge33" class="edge">
<title>PU-NTM&#45;&gt;PU-EnergyTech</title>
<path fill="none" stroke="black" d="M624.4,-362.76C639.71,-391.79 667.93,-437.54 705,-464 710.27,-467.76 716.06,-471.03 722.09,-473.87"/>
<polygon fill="black" stroke="black" points="721.14,-477.27 731.71,-477.98 723.89,-470.83 721.14,-477.27"/>
</g>
<!-- PU-FinTech -->
<g id="node24" class="node">
<title>PU-FinTech</title>
<polygon fill="none" stroke="black" points="746,-416 746,-454 847,-454 847,-416 746,-416"/>
<text text-anchor="middle" x="796.5" y="-438.8" font-family="Times,serif" font-size="14.00">PU-FinTech</text>
<text text-anchor="middle" x="796.5" y="-423.8" font-family="Times,serif" font-size="14.00">Target</text>
</g>
<!-- PU-NTM&#45;&gt;PU-FinTech -->
<g id="edge36" class="edge">
<title>PU-NTM&#45;&gt;PU-FinTech</title>
<path fill="none" stroke="black" d="M640.85,-362.56C658.42,-377.32 681.8,-395.07 705,-407 714.74,-412.01 725.54,-416.31 736.19,-419.92"/>
<polygon fill="black" stroke="black" points="735.3,-423.31 745.89,-423.06 737.45,-416.65 735.3,-423.31"/>
</g>
<!-- PU-DefenseTech -->
<g id="node27" class="node">
<title>PU-DefenseTech</title>
<polygon fill="none" stroke="black" points="729,-359 729,-397 864,-397 864,-359 729,-359"/>
<text text-anchor="middle" x="796.5" y="-381.8" font-family="Times,serif" font-size="14.00">PU-DefenseTech</text>
<text text-anchor="middle" x="796.5" y="-366.8" font-family="Times,serif" font-size="14.00">Target</text>
</g>
<!-- PU-NTM&#45;&gt;PU-DefenseTech -->
<g id="edge39" class="edge">
<title>PU-NTM&#45;&gt;PU-DefenseTech</title>
<path fill="none" stroke="black" d="M668.71,-349.06C684.67,-352.7 702.27,-356.72 719.15,-360.57"/>
<polygon fill="black" stroke="black" points="718.46,-364 728.98,-362.82 720.01,-357.18 718.46,-364"/>
</g>
</g>
</svg>
