<?xml version="1.0" encoding="UTF-8" standalone="no"?>
<!DOCTYPE svg PUBLIC "-//W3C//DTD SVG 1.1//EN"
 "http://www.w3.org/Graphics/SVG/1.1/DTD/svg11.dtd">
<!-- Generated by graphviz version 2.43.0 (0)
 -->
<!-- Title: Project Pages: 1 -->
<svg width="917pt" height="559pt"
 viewBox="0.00 0.00 917.00 559.00" xmlns="http://www.w3.org/2000/svg" xmlns:xlink="http://www.w3.org/1999/xlink">
<g id="graph0" class="graph" transform="scale(1 1) rotate(0) translate(4 555)">
<title>Project</title>
<polygon fill="white" stroke="transparent" points="-4,4 -4,-555 913,-555 913,4 -4,4"/>
<g id="clust1" class="cluster">
<title>cluster PeripheralBlocks</title>
<polygon fill="none" stroke="black" points="8,-8 8,-543 156,-543 156,-8 8,-8"/>
<text text-anchor="middle" x="82" y="-527.8" font-family="Times,serif" font-size="14.00">Peripheral Blocks</text>
</g>
<g id="clust2" class="cluster">
<title>cluster ArchitectureBlocks</title>
<polygon fill="none" stroke="black" points="176,-157 176,-394 333,-394 333,-157 176,-157"/>
<text text-anchor="middle" x="254.5" y="-378.8" font-family="Times,serif" font-size="14.00">Architecture Blocks</text>
</g>
<g id="clust3" class="cluster">
<title>cluster EnvironmentBlocks</title>
<polygon fill="none" stroke="black" points="353,-157 353,-394 514,-394 514,-157 353,-157"/>
<text text-anchor="middle" x="433.5" y="-378.8" font-family="Times,serif" font-size="14.00">Environment Blocks</text>
</g>
<g id="clust4" class="cluster">
<title>cluster AcceleratorBlocks</title>
<polygon fill="none" stroke="black" points="534,-157 534,-394 701,-394 701,-157 534,-157"/>
<text text-anchor="middle" x="617.5" y="-378.8" font-family="Times,serif" font-size="14.00">Accelerator Blocks</text>
</g>
<g id="clust5" class="cluster">
<title>cluster TargetBlocks</title>
<polygon fill="none" stroke="black" points="721,-8 721,-543 901,-543 901,-8 721,-8"/>
<text text-anchor="middle" x="811" y="-527.8" font-family="Times,serif" font-size="14.00">Target Blocks</text>
</g>
<!-- MPSoC_DBG -->
<g id="node1" class="node">
<title>MPSoC_DBG</title>
<polygon fill="none" stroke="black" points="28.5,-131 28.5,-169 135.5,-169 135.5,-131 28.5,-131"/>
<text text-anchor="middle" x="82" y="-153.8" font-family="Times,serif" font-size="14.00">MPSoC&#45;DBG</text>
<text text-anchor="middle" x="82" y="-138.8" font-family="Times,serif" font-size="14.00">Peripheral</text>
</g>
<!-- MPSoC_MSP430 -->
<g id="node10" class="node">
<title>MPSoC_MSP430</title>
<polygon fill="none" stroke="black" points="187,-165.5 187,-218.5 321,-218.5 321,-165.5 187,-165.5"/>
<text text-anchor="middle" x="254" y="-203.3" font-family="Times,serif" font-size="14.00">MPSoC&#45;MSP430</text>
<text text-anchor="middle" x="254" y="-188.3" font-family="Times,serif" font-size="14.00">Architecture</text>
<text text-anchor="middle" x="254" y="-173.3" font-family="Times,serif" font-size="14.00">msp430&#45;pvt</text>
</g>
<!-- MPSoC_DBG&#45;&gt;MPSoC_MSP430 -->
<g id="edge1" class="edge">
<title>MPSoC_DBG&#45;&gt;MPSoC_MSP430</title>
<path fill="none" stroke="black" d="M135.86,-163.06C148.88,-166.28 163.08,-169.78 176.95,-173.21"/>
<polygon fill="black" stroke="black" points="176.43,-176.69 186.98,-175.69 178.11,-169.89 176.43,-176.69"/>
</g>
<!-- SoC_MSP430 -->
<g id="node11" class="node">
<title>SoC_MSP430</title>
<polygon fill="none" stroke="black" points="199,-237.5 199,-290.5 309,-290.5 309,-237.5 199,-237.5"/>
<text text-anchor="middle" x="254" y="-275.3" font-family="Times,serif" font-size="14.00">SoC&#45;MSP430</text>
<text text-anchor="middle" x="254" y="-260.3" font-family="Times,serif" font-size="14.00">Architecture</text>
<text text-anchor="middle" x="254" y="-245.3" font-family="Times,serif" font-size="14.00">msp430&#45;pv</text>
</g>
<!-- MPSoC_DBG&#45;&gt;SoC_MSP430 -->
<g id="edge10" class="edge">
<title>MPSoC_DBG&#45;&gt;SoC_MSP430</title>
<path fill="none" stroke="black" d="M135.63,-164.84C143.09,-168.59 150.19,-173.24 156,-179 172.71,-195.55 159.79,-210.96 176,-228 180.11,-232.31 184.83,-236.16 189.88,-239.59"/>
<polygon fill="black" stroke="black" points="188.27,-242.71 198.62,-244.95 191.93,-236.74 188.27,-242.71"/>
</g>
<!-- PU_MSP430 -->
<g id="node12" class="node">
<title>PU_MSP430</title>
<polygon fill="none" stroke="black" points="201,-309.5 201,-362.5 307,-362.5 307,-309.5 201,-309.5"/>
<text text-anchor="middle" x="254" y="-347.3" font-family="Times,serif" font-size="14.00">PU&#45;MSP430</text>
<text text-anchor="middle" x="254" y="-332.3" font-family="Times,serif" font-size="14.00">Architecture</text>
<text text-anchor="middle" x="254" y="-317.3" font-family="Times,serif" font-size="14.00">msp430&#45;p</text>
</g>
<!-- MPSoC_DBG&#45;&gt;PU_MSP430 -->
<g id="edge19" class="edge">
<title>MPSoC_DBG&#45;&gt;PU_MSP430</title>
<path fill="none" stroke="black" d="M135.72,-163.19C143.45,-167.16 150.61,-172.31 156,-179 190.2,-221.44 143.07,-256.56 176,-300 180.41,-305.82 186,-310.74 192.14,-314.88"/>
<polygon fill="black" stroke="black" points="190.42,-317.93 200.79,-320.06 194.01,-311.92 190.42,-317.93"/>
</g>
<!-- MPSoC_DMA -->
<g id="node2" class="node">
<title>MPSoC_DMA</title>
<polygon fill="none" stroke="black" points="27.5,-74 27.5,-112 136.5,-112 136.5,-74 27.5,-74"/>
<text text-anchor="middle" x="82" y="-96.8" font-family="Times,serif" font-size="14.00">MPSoC&#45;DMA</text>
<text text-anchor="middle" x="82" y="-81.8" font-family="Times,serif" font-size="14.00">Peripheral</text>
</g>
<!-- MPSoC_DMA&#45;&gt;MPSoC_MSP430 -->
<g id="edge2" class="edge">
<title>MPSoC_DMA&#45;&gt;MPSoC_MSP430</title>
<path fill="none" stroke="black" d="M135.57,-112.06C142.56,-115.12 149.54,-118.46 156,-122 175.4,-132.64 195.46,-146.55 212.27,-159.17"/>
<polygon fill="black" stroke="black" points="210.16,-161.96 220.24,-165.24 214.4,-156.39 210.16,-161.96"/>
</g>
<!-- MPSoC_DMA&#45;&gt;SoC_MSP430 -->
<g id="edge11" class="edge">
<title>MPSoC_DMA&#45;&gt;SoC_MSP430</title>
<path fill="none" stroke="black" d="M136.7,-106.87C144.02,-110.74 150.79,-115.69 156,-122 186.5,-158.99 146.61,-190.13 176,-228 179.98,-233.13 184.86,-237.55 190.22,-241.37"/>
<polygon fill="black" stroke="black" points="188.65,-244.51 198.97,-246.88 192.38,-238.59 188.65,-244.51"/>
</g>
<!-- MPSoC_DMA&#45;&gt;PU_MSP430 -->
<g id="edge20" class="edge">
<title>MPSoC_DMA&#45;&gt;PU_MSP430</title>
<path fill="none" stroke="black" d="M136.75,-106.34C144.16,-110.28 150.95,-115.39 156,-122 204.32,-185.27 129.57,-235.33 176,-300 180.32,-306.02 185.9,-311.06 192.09,-315.27"/>
<polygon fill="black" stroke="black" points="190.47,-318.38 200.84,-320.53 194.07,-312.38 190.47,-318.38"/>
</g>
<!-- MPSoC_GPIO -->
<g id="node3" class="node">
<title>MPSoC_GPIO</title>
<polygon fill="none" stroke="black" points="26.5,-473 26.5,-511 137.5,-511 137.5,-473 26.5,-473"/>
<text text-anchor="middle" x="82" y="-495.8" font-family="Times,serif" font-size="14.00">MPSoC&#45;GPIO</text>
<text text-anchor="middle" x="82" y="-480.8" font-family="Times,serif" font-size="14.00">Peripheral</text>
</g>
<!-- MPSoC_GPIO&#45;&gt;MPSoC_MSP430 -->
<g id="edge3" class="edge">
<title>MPSoC_GPIO&#45;&gt;MPSoC_MSP430</title>
<path fill="none" stroke="black" d="M137.61,-479.15C144.72,-475.34 151.19,-470.4 156,-464 187.62,-421.93 145.89,-271.17 176,-228 177.04,-226.5 178.17,-225.06 179.36,-223.69"/>
<polygon fill="black" stroke="black" points="182.12,-225.88 186.87,-216.41 177.25,-220.85 182.12,-225.88"/>
</g>
<!-- MPSoC_GPIO&#45;&gt;SoC_MSP430 -->
<g id="edge12" class="edge">
<title>MPSoC_GPIO&#45;&gt;SoC_MSP430</title>
<path fill="none" stroke="black" d="M137.76,-478.8C144.76,-475.04 151.15,-470.21 156,-464 201.19,-406.12 132.89,-359.44 176,-300 179.87,-294.67 184.72,-290.1 190.11,-286.2"/>
<polygon fill="black" stroke="black" points="192.38,-288.9 198.94,-280.59 188.63,-282.99 192.38,-288.9"/>
</g>
<!-- MPSoC_GPIO&#45;&gt;PU_MSP430 -->
<g id="edge21" class="edge">
<title>MPSoC_GPIO&#45;&gt;PU_MSP430</title>
<path fill="none" stroke="black" d="M137.81,-474.89C144.24,-471.77 150.47,-468.16 156,-464 189.19,-439.07 216.58,-399.84 233.7,-371.38"/>
<polygon fill="black" stroke="black" points="236.84,-372.94 238.89,-362.55 230.8,-369.4 236.84,-372.94"/>
</g>
<!-- MPSoC_MPI -->
<g id="node4" class="node">
<title>MPSoC_MPI</title>
<polygon fill="none" stroke="black" points="30.5,-416 30.5,-454 133.5,-454 133.5,-416 30.5,-416"/>
<text text-anchor="middle" x="82" y="-438.8" font-family="Times,serif" font-size="14.00">MPSoC&#45;MPI</text>
<text text-anchor="middle" x="82" y="-423.8" font-family="Times,serif" font-size="14.00">Peripheral</text>
</g>
<!-- MPSoC_MPI&#45;&gt;MPSoC_MSP430 -->
<g id="edge4" class="edge">
<title>MPSoC_MPI&#45;&gt;MPSoC_MSP430</title>
<path fill="none" stroke="black" d="M133.78,-423.87C142.33,-419.86 150.27,-414.41 156,-407 204.95,-343.66 129.33,-293.04 176,-228 177.04,-226.56 178.14,-225.17 179.31,-223.84"/>
<polygon fill="black" stroke="black" points="181.87,-226.24 186.66,-216.78 177.02,-221.19 181.87,-226.24"/>
</g>
<!-- MPSoC_MPI&#45;&gt;SoC_MSP430 -->
<g id="edge13" class="edge">
<title>MPSoC_MPI&#45;&gt;SoC_MSP430</title>
<path fill="none" stroke="black" d="M133.72,-423.35C142.17,-419.39 150.09,-414.09 156,-407 186.97,-369.83 146.37,-338.25 176,-300 179.97,-294.87 184.85,-290.44 190.21,-286.62"/>
<polygon fill="black" stroke="black" points="192.37,-289.4 198.96,-281.11 188.64,-283.48 192.37,-289.4"/>
</g>
<!-- MPSoC_MPI&#45;&gt;PU_MSP430 -->
<g id="edge22" class="edge">
<title>MPSoC_MPI&#45;&gt;PU_MSP430</title>
<path fill="none" stroke="black" d="M133.66,-417.59C141.3,-414.39 148.97,-410.83 156,-407 175.84,-396.18 196.25,-381.82 213.2,-368.84"/>
<polygon fill="black" stroke="black" points="215.48,-371.5 221.23,-362.6 211.18,-365.97 215.48,-371.5"/>
</g>
<!-- MPSoC_MPRAM -->
<g id="node5" class="node">
<title>MPSoC_MPRAM</title>
<polygon fill="none" stroke="black" points="16,-359 16,-397 148,-397 148,-359 16,-359"/>
<text text-anchor="middle" x="82" y="-381.8" font-family="Times,serif" font-size="14.00">MPSoC&#45;MPRAM</text>
<text text-anchor="middle" x="82" y="-366.8" font-family="Times,serif" font-size="14.00">Peripheral</text>
</g>
<!-- MPSoC_MPRAM&#45;&gt;MPSoC_MSP430 -->
<g id="edge5" class="edge">
<title>MPSoC_MPRAM&#45;&gt;MPSoC_MSP430</title>
<path fill="none" stroke="black" d="M146.56,-358.94C150.06,-356.33 153.26,-353.37 156,-350 190.7,-307.4 142.84,-271.81 176,-228 177.07,-226.58 178.21,-225.22 179.41,-223.91"/>
<polygon fill="black" stroke="black" points="181.95,-226.33 186.89,-216.96 177.19,-221.2 181.95,-226.33"/>
</g>
<!-- MPSoC_MPRAM&#45;&gt;SoC_MSP430 -->
<g id="edge14" class="edge">
<title>MPSoC_MPRAM&#45;&gt;SoC_MSP430</title>
<path fill="none" stroke="black" d="M144.72,-358.88C148.79,-356.28 152.62,-353.34 156,-350 173.04,-333.2 159.56,-317.4 176,-300 180.15,-295.6 184.95,-291.69 190.08,-288.22"/>
<polygon fill="black" stroke="black" points="192.27,-290.99 198.98,-282.79 188.62,-285.01 192.27,-290.99"/>
</g>
<!-- MPSoC_MPRAM&#45;&gt;PU_MSP430 -->
<g id="edge23" class="edge">
<title>MPSoC_MPRAM&#45;&gt;PU_MSP430</title>
<path fill="none" stroke="black" d="M148.24,-361.88C162.25,-358.42 177.03,-354.77 190.92,-351.34"/>
<polygon fill="black" stroke="black" points="191.98,-354.68 200.85,-348.88 190.31,-347.88 191.98,-354.68"/>
</g>
<!-- MPSoC_MSI -->
<g id="node6" class="node">
<title>MPSoC_MSI</title>
<polygon fill="none" stroke="black" points="30.5,-302 30.5,-340 133.5,-340 133.5,-302 30.5,-302"/>
<text text-anchor="middle" x="82" y="-324.8" font-family="Times,serif" font-size="14.00">MPSoC&#45;MSI</text>
<text text-anchor="middle" x="82" y="-309.8" font-family="Times,serif" font-size="14.00">Peripheral</text>
</g>
<!-- MPSoC_MSI&#45;&gt;MPSoC_MSP430 -->
<g id="edge6" class="edge">
<title>MPSoC_MSI&#45;&gt;MPSoC_MSP430</title>
<path fill="none" stroke="black" d="M133.84,-308.44C142.07,-304.58 149.88,-299.55 156,-293 176.64,-270.92 156.16,-250.8 176,-228 177,-226.85 178.04,-225.74 179.12,-224.66"/>
<polygon fill="black" stroke="black" points="181.54,-227.2 186.78,-218 176.94,-221.92 181.54,-227.2"/>
</g>
<!-- MPSoC_MSI&#45;&gt;SoC_MSP430 -->
<g id="edge15" class="edge">
<title>MPSoC_MSI&#45;&gt;SoC_MSP430</title>
<path fill="none" stroke="black" d="M133.55,-304.05C151.05,-298.18 170.9,-291.53 189.32,-285.35"/>
<polygon fill="black" stroke="black" points="190.43,-288.67 198.8,-282.17 188.21,-282.03 190.43,-288.67"/>
</g>
<!-- MPSoC_MSI&#45;&gt;PU_MSP430 -->
<g id="edge24" class="edge">
<title>MPSoC_MSI&#45;&gt;PU_MSP430</title>
<path fill="none" stroke="black" d="M133.55,-325.46C151.55,-327.05 172.03,-328.86 190.89,-330.52"/>
<polygon fill="black" stroke="black" points="190.61,-334.01 200.88,-331.4 191.23,-327.04 190.61,-334.01"/>
</g>
<!-- MPSoC_NoC -->
<g id="node7" class="node">
<title>MPSoC_NoC</title>
<polygon fill="none" stroke="black" points="30,-17 30,-55 134,-55 134,-17 30,-17"/>
<text text-anchor="middle" x="82" y="-39.8" font-family="Times,serif" font-size="14.00">MPSoC&#45;NoC</text>
<text text-anchor="middle" x="82" y="-24.8" font-family="Times,serif" font-size="14.00">Peripheral</text>
</g>
<!-- MPSoC_NoC&#45;&gt;MPSoC_MSP430 -->
<g id="edge7" class="edge">
<title>MPSoC_NoC&#45;&gt;MPSoC_MSP430</title>
<path fill="none" stroke="black" d="M134.02,-51.33C141.77,-54.83 149.38,-59.03 156,-64 189.19,-88.93 216.58,-128.16 233.7,-156.62"/>
<polygon fill="black" stroke="black" points="230.8,-158.6 238.89,-165.45 236.84,-155.06 230.8,-158.6"/>
</g>
<!-- MPSoC_NoC&#45;&gt;SoC_MSP430 -->
<g id="edge16" class="edge">
<title>MPSoC_NoC&#45;&gt;SoC_MSP430</title>
<path fill="none" stroke="black" d="M134.09,-47.35C142.51,-51.34 150.32,-56.72 156,-64 201.19,-121.88 132.89,-168.56 176,-228 179.87,-233.33 184.72,-237.9 190.11,-241.8"/>
<polygon fill="black" stroke="black" points="188.63,-245.01 198.94,-247.41 192.38,-239.1 188.63,-245.01"/>
</g>
<!-- MPSoC_SPRAM -->
<g id="node8" class="node">
<title>MPSoC_SPRAM</title>
<polygon fill="none" stroke="black" points="18,-245 18,-283 146,-283 146,-245 18,-245"/>
<text text-anchor="middle" x="82" y="-267.8" font-family="Times,serif" font-size="14.00">MPSoC&#45;SPRAM</text>
<text text-anchor="middle" x="82" y="-252.8" font-family="Times,serif" font-size="14.00">Peripheral</text>
</g>
<!-- MPSoC_SPRAM&#45;&gt;MPSoC_MSP430 -->
<g id="edge8" class="edge">
<title>MPSoC_SPRAM&#45;&gt;MPSoC_MSP430</title>
<path fill="none" stroke="black" d="M133.81,-244.96C141.28,-242.03 148.86,-238.98 156,-236 165.99,-231.82 176.49,-227.25 186.74,-222.69"/>
<polygon fill="black" stroke="black" points="188.36,-225.8 196.06,-218.51 185.5,-219.41 188.36,-225.8"/>
</g>
<!-- MPSoC_SPRAM&#45;&gt;SoC_MSP430 -->
<g id="edge17" class="edge">
<title>MPSoC_SPRAM&#45;&gt;SoC_MSP430</title>
<path fill="none" stroke="black" d="M146.3,-264C160.07,-264 174.65,-264 188.46,-264"/>
<polygon fill="black" stroke="black" points="188.85,-267.5 198.85,-264 188.85,-260.5 188.85,-267.5"/>
</g>
<!-- MPSoC_SPRAM&#45;&gt;PU_MSP430 -->
<g id="edge25" class="edge">
<title>MPSoC_SPRAM&#45;&gt;PU_MSP430</title>
<path fill="none" stroke="black" d="M131.8,-283.08C139.9,-286.34 148.2,-289.73 156,-293 167.52,-297.84 179.76,-303.14 191.51,-308.31"/>
<polygon fill="black" stroke="black" points="190.25,-311.58 200.81,-312.41 193.07,-305.17 190.25,-311.58"/>
</g>
<!-- MPSoC_UART -->
<g id="node9" class="node">
<title>MPSoC_UART</title>
<polygon fill="none" stroke="black" points="25,-188 25,-226 139,-226 139,-188 25,-188"/>
<text text-anchor="middle" x="82" y="-210.8" font-family="Times,serif" font-size="14.00">MPSoC&#45;UART</text>
<text text-anchor="middle" x="82" y="-195.8" font-family="Times,serif" font-size="14.00">Peripheral</text>
</g>
<!-- MPSoC_UART&#45;&gt;MPSoC_MSP430 -->
<g id="edge9" class="edge">
<title>MPSoC_UART&#45;&gt;MPSoC_MSP430</title>
<path fill="none" stroke="black" d="M139.14,-202.05C151.19,-200.98 164.13,-199.84 176.8,-198.72"/>
<polygon fill="black" stroke="black" points="177.23,-202.2 186.89,-197.83 176.62,-195.23 177.23,-202.2"/>
</g>
<!-- MPSoC_UART&#45;&gt;SoC_MSP430 -->
<g id="edge18" class="edge">
<title>MPSoC_UART&#45;&gt;SoC_MSP430</title>
<path fill="none" stroke="black" d="M139.14,-225.82C155.22,-231.22 172.88,-237.14 189.38,-242.67"/>
<polygon fill="black" stroke="black" points="188.35,-246.02 198.95,-245.88 190.58,-239.38 188.35,-246.02"/>
</g>
<!-- MPSoC_UART&#45;&gt;PU_MSP430 -->
<g id="edge26" class="edge">
<title>MPSoC_UART&#45;&gt;PU_MSP430</title>
<path fill="none" stroke="black" d="M139,-222.99C145.3,-226.52 151.18,-230.8 156,-236 176.26,-257.85 156.39,-277.56 176,-300 180.57,-305.23 186.05,-309.75 191.97,-313.65"/>
<polygon fill="black" stroke="black" points="190.5,-316.84 200.89,-318.92 194.06,-310.82 190.5,-316.84"/>
</g>
<!-- MPSoC_DV -->
<g id="node13" class="node">
<title>MPSoC_DV</title>
<polygon fill="none" stroke="black" points="378,-165.5 378,-218.5 488,-218.5 488,-165.5 378,-165.5"/>
<text text-anchor="middle" x="433" y="-203.3" font-family="Times,serif" font-size="14.00">MPSoC&#45;DV</text>
<text text-anchor="middle" x="433" y="-188.3" font-family="Times,serif" font-size="14.00">Environment</text>
<text text-anchor="middle" x="433" y="-173.3" font-family="Times,serif" font-size="14.00">msp430&#45;pvt</text>
</g>
<!-- MPSoC_MSP430&#45;&gt;MPSoC_DV -->
<g id="edge29" class="edge">
<title>MPSoC_MSP430&#45;&gt;MPSoC_DV</title>
<path fill="none" stroke="black" d="M321.16,-192C336.32,-192 352.41,-192 367.5,-192"/>
<polygon fill="black" stroke="black" points="367.76,-195.5 377.76,-192 367.76,-188.5 367.76,-195.5"/>
</g>
<!-- SoC_DV -->
<g id="node14" class="node">
<title>SoC_DV</title>
<polygon fill="none" stroke="black" points="378,-237.5 378,-290.5 488,-290.5 488,-237.5 378,-237.5"/>
<text text-anchor="middle" x="433" y="-275.3" font-family="Times,serif" font-size="14.00">SoC&#45;DV</text>
<text text-anchor="middle" x="433" y="-260.3" font-family="Times,serif" font-size="14.00">Environment</text>
<text text-anchor="middle" x="433" y="-245.3" font-family="Times,serif" font-size="14.00">msp430&#45;pv</text>
</g>
<!-- SoC_MSP430&#45;&gt;SoC_DV -->
<g id="edge28" class="edge">
<title>SoC_MSP430&#45;&gt;SoC_DV</title>
<path fill="none" stroke="black" d="M309.07,-264C327.6,-264 348.51,-264 367.76,-264"/>
<polygon fill="black" stroke="black" points="367.96,-267.5 377.96,-264 367.96,-260.5 367.96,-267.5"/>
</g>
<!-- PU_DV -->
<g id="node15" class="node">
<title>PU_DV</title>
<polygon fill="none" stroke="black" points="378,-309.5 378,-362.5 488,-362.5 488,-309.5 378,-309.5"/>
<text text-anchor="middle" x="433" y="-347.3" font-family="Times,serif" font-size="14.00">PU&#45;DV</text>
<text text-anchor="middle" x="433" y="-332.3" font-family="Times,serif" font-size="14.00">Environment</text>
<text text-anchor="middle" x="433" y="-317.3" font-family="Times,serif" font-size="14.00">msp430&#45;p</text>
</g>
<!-- PU_MSP430&#45;&gt;PU_DV -->
<g id="edge27" class="edge">
<title>PU_MSP430&#45;&gt;PU_DV</title>
<path fill="none" stroke="black" d="M307.15,-336C326.08,-336 347.7,-336 367.56,-336"/>
<polygon fill="black" stroke="black" points="367.77,-339.5 377.77,-336 367.77,-332.5 367.77,-339.5"/>
</g>
<!-- MPSoC_DNC -->
<g id="node16" class="node">
<title>MPSoC_DNC</title>
<polygon fill="none" stroke="black" points="542,-165.5 542,-218.5 693,-218.5 693,-165.5 542,-165.5"/>
<text text-anchor="middle" x="617.5" y="-203.3" font-family="Times,serif" font-size="14.00">MPSoC&#45;DNC</text>
<text text-anchor="middle" x="617.5" y="-188.3" font-family="Times,serif" font-size="14.00">Accelerator</text>
<text text-anchor="middle" x="617.5" y="-173.3" font-family="Times,serif" font-size="14.00">msp430&#45;pvt&#45;gcvwy</text>
</g>
<!-- MPSoC_DV&#45;&gt;MPSoC_DNC -->
<g id="edge32" class="edge">
<title>MPSoC_DV&#45;&gt;MPSoC_DNC</title>
<path fill="none" stroke="black" d="M488.26,-192C501.92,-192 516.91,-192 531.68,-192"/>
<polygon fill="black" stroke="black" points="531.84,-195.5 541.84,-192 531.84,-188.5 531.84,-195.5"/>
</g>
<!-- SoC_DNC -->
<g id="node17" class="node">
<title>SoC_DNC</title>
<polygon fill="none" stroke="black" points="545,-237.5 545,-290.5 690,-290.5 690,-237.5 545,-237.5"/>
<text text-anchor="middle" x="617.5" y="-275.3" font-family="Times,serif" font-size="14.00">SoC&#45;DNC</text>
<text text-anchor="middle" x="617.5" y="-260.3" font-family="Times,serif" font-size="14.00">Accelerator</text>
<text text-anchor="middle" x="617.5" y="-245.3" font-family="Times,serif" font-size="14.00">msp430&#45;pv&#45;gcvwy</text>
</g>
<!-- SoC_DV&#45;&gt;SoC_DNC -->
<g id="edge31" class="edge">
<title>SoC_DV&#45;&gt;SoC_DNC</title>
<path fill="none" stroke="black" d="M488.26,-264C502.83,-264 518.91,-264 534.61,-264"/>
<polygon fill="black" stroke="black" points="534.86,-267.5 544.86,-264 534.86,-260.5 534.86,-267.5"/>
</g>
<!-- PU_DNC -->
<g id="node18" class="node">
<title>PU_DNC</title>
<polygon fill="none" stroke="black" points="549,-309.5 549,-362.5 686,-362.5 686,-309.5 549,-309.5"/>
<text text-anchor="middle" x="617.5" y="-347.3" font-family="Times,serif" font-size="14.00">PU&#45;DNC</text>
<text text-anchor="middle" x="617.5" y="-332.3" font-family="Times,serif" font-size="14.00">Accelerator</text>
<text text-anchor="middle" x="617.5" y="-317.3" font-family="Times,serif" font-size="14.00">msp430&#45;p&#45;gcvwy</text>
</g>
<!-- PU_DV&#45;&gt;PU_DNC -->
<g id="edge30" class="edge">
<title>PU_DV&#45;&gt;PU_DNC</title>
<path fill="none" stroke="black" d="M488.26,-336C504.01,-336 521.53,-336 538.43,-336"/>
<polygon fill="black" stroke="black" points="538.85,-339.5 548.85,-336 538.85,-332.5 538.85,-339.5"/>
</g>
<!-- MPSoC_EnergyTech -->
<g id="node19" class="node">
<title>MPSoC_EnergyTech</title>
<polygon fill="none" stroke="black" points="732,-131 732,-169 890,-169 890,-131 732,-131"/>
<text text-anchor="middle" x="811" y="-153.8" font-family="Times,serif" font-size="14.00">MPSoC&#45;EnergyTech</text>
<text text-anchor="middle" x="811" y="-138.8" font-family="Times,serif" font-size="14.00">Target</text>
</g>
<!-- MPSoC_DNC&#45;&gt;MPSoC_EnergyTech -->
<g id="edge35" class="edge">
<title>MPSoC_DNC&#45;&gt;MPSoC_EnergyTech</title>
<path fill="none" stroke="black" d="M693.09,-175.64C702.52,-173.57 712.24,-171.44 721.85,-169.33"/>
<polygon fill="black" stroke="black" points="722.8,-172.71 731.82,-167.15 721.3,-165.87 722.8,-172.71"/>
</g>
<!-- MPSoC_FinTech -->
<g id="node22" class="node">
<title>MPSoC_FinTech</title>
<polygon fill="none" stroke="black" points="746,-17 746,-55 876,-55 876,-17 746,-17"/>
<text text-anchor="middle" x="811" y="-39.8" font-family="Times,serif" font-size="14.00">MPSoC&#45;FinTech</text>
<text text-anchor="middle" x="811" y="-24.8" font-family="Times,serif" font-size="14.00">Target</text>
</g>
<!-- MPSoC_DNC&#45;&gt;MPSoC_FinTech -->
<g id="edge38" class="edge">
<title>MPSoC_DNC&#45;&gt;MPSoC_FinTech</title>
<path fill="none" stroke="black" d="M633.29,-165.3C650.67,-136.31 682.12,-90.61 721,-64 725.8,-60.72 730.99,-57.81 736.39,-55.22"/>
<polygon fill="black" stroke="black" points="737.86,-58.4 745.62,-51.19 735.06,-51.99 737.86,-58.4"/>
</g>
<!-- MPSoC_DefenseTech -->
<g id="node25" class="node">
<title>MPSoC_DefenseTech</title>
<polygon fill="none" stroke="black" points="729,-74 729,-112 893,-112 893,-74 729,-74"/>
<text text-anchor="middle" x="811" y="-96.8" font-family="Times,serif" font-size="14.00">MPSoC&#45;DefenseTech</text>
<text text-anchor="middle" x="811" y="-81.8" font-family="Times,serif" font-size="14.00">Target</text>
</g>
<!-- MPSoC_DNC&#45;&gt;MPSoC_DefenseTech -->
<g id="edge41" class="edge">
<title>MPSoC_DNC&#45;&gt;MPSoC_DefenseTech</title>
<path fill="none" stroke="black" d="M652.1,-165.45C671.42,-151.13 696.64,-133.98 721,-122 725.33,-119.87 729.85,-117.85 734.46,-115.93"/>
<polygon fill="black" stroke="black" points="736.01,-119.08 744.02,-112.15 733.44,-112.57 736.01,-119.08"/>
</g>
<!-- SoC_EnergyTech -->
<g id="node20" class="node">
<title>SoC_EnergyTech</title>
<polygon fill="none" stroke="black" points="744,-245 744,-283 878,-283 878,-245 744,-245"/>
<text text-anchor="middle" x="811" y="-267.8" font-family="Times,serif" font-size="14.00">SoC&#45;EnergyTech</text>
<text text-anchor="middle" x="811" y="-252.8" font-family="Times,serif" font-size="14.00">Target</text>
</g>
<!-- SoC_DNC&#45;&gt;SoC_EnergyTech -->
<g id="edge34" class="edge">
<title>SoC_DNC&#45;&gt;SoC_EnergyTech</title>
<path fill="none" stroke="black" d="M690.08,-264C704.27,-264 719.22,-264 733.56,-264"/>
<polygon fill="black" stroke="black" points="733.88,-267.5 743.88,-264 733.88,-260.5 733.88,-267.5"/>
</g>
<!-- SoC_FinTech -->
<g id="node23" class="node">
<title>SoC_FinTech</title>
<polygon fill="none" stroke="black" points="758,-188 758,-226 864,-226 864,-188 758,-188"/>
<text text-anchor="middle" x="811" y="-210.8" font-family="Times,serif" font-size="14.00">SoC&#45;FinTech</text>
<text text-anchor="middle" x="811" y="-195.8" font-family="Times,serif" font-size="14.00">Target</text>
</g>
<!-- SoC_DNC&#45;&gt;SoC_FinTech -->
<g id="edge37" class="edge">
<title>SoC_DNC&#45;&gt;SoC_FinTech</title>
<path fill="none" stroke="black" d="M690.08,-242.69C709.17,-237.01 729.63,-230.92 748.15,-225.41"/>
<polygon fill="black" stroke="black" points="749.34,-228.71 757.93,-222.5 747.35,-222 749.34,-228.71"/>
</g>
<!-- SoC_DefenseTech -->
<g id="node26" class="node">
<title>SoC_DefenseTech</title>
<polygon fill="none" stroke="black" points="741,-302 741,-340 881,-340 881,-302 741,-302"/>
<text text-anchor="middle" x="811" y="-324.8" font-family="Times,serif" font-size="14.00">SoC&#45;DefenseTech</text>
<text text-anchor="middle" x="811" y="-309.8" font-family="Times,serif" font-size="14.00">Target</text>
</g>
<!-- SoC_DNC&#45;&gt;SoC_DefenseTech -->
<g id="edge40" class="edge">
<title>SoC_DNC&#45;&gt;SoC_DefenseTech</title>
<path fill="none" stroke="black" d="M690.08,-285.31C705.16,-289.79 721.09,-294.54 736.24,-299.05"/>
<polygon fill="black" stroke="black" points="735.49,-302.47 746.07,-301.97 737.49,-295.76 735.49,-302.47"/>
</g>
<!-- PU_EnergyTech -->
<g id="node21" class="node">
<title>PU_EnergyTech</title>
<polygon fill="none" stroke="black" points="748,-473 748,-511 874,-511 874,-473 748,-473"/>
<text text-anchor="middle" x="811" y="-495.8" font-family="Times,serif" font-size="14.00">PU&#45;EnergyTech</text>
<text text-anchor="middle" x="811" y="-480.8" font-family="Times,serif" font-size="14.00">Target</text>
</g>
<!-- PU_DNC&#45;&gt;PU_EnergyTech -->
<g id="edge33" class="edge">
<title>PU_DNC&#45;&gt;PU_EnergyTech</title>
<path fill="none" stroke="black" d="M633.29,-362.7C650.67,-391.69 682.12,-437.39 721,-464 726.48,-467.75 732.48,-471.02 738.71,-473.86"/>
<polygon fill="black" stroke="black" points="737.37,-477.09 747.94,-477.73 740.07,-470.64 737.37,-477.09"/>
</g>
<!-- PU_FinTech -->
<g id="node24" class="node">
<title>PU_FinTech</title>
<polygon fill="none" stroke="black" points="762,-416 762,-454 860,-454 860,-416 762,-416"/>
<text text-anchor="middle" x="811" y="-438.8" font-family="Times,serif" font-size="14.00">PU&#45;FinTech</text>
<text text-anchor="middle" x="811" y="-423.8" font-family="Times,serif" font-size="14.00">Target</text>
</g>
<!-- PU_DNC&#45;&gt;PU_FinTech -->
<g id="edge36" class="edge">
<title>PU_DNC&#45;&gt;PU_FinTech</title>
<path fill="none" stroke="black" d="M651.54,-362.71C670.89,-377.34 696.31,-394.91 721,-407 730.8,-411.8 741.61,-416.01 752.21,-419.61"/>
<polygon fill="black" stroke="black" points="751.27,-422.99 761.86,-422.75 753.43,-416.33 751.27,-422.99"/>
</g>
<!-- PU_DefenseTech -->
<g id="node27" class="node">
<title>PU_DefenseTech</title>
<polygon fill="none" stroke="black" points="745,-359 745,-397 877,-397 877,-359 745,-359"/>
<text text-anchor="middle" x="811" y="-381.8" font-family="Times,serif" font-size="14.00">PU&#45;DefenseTech</text>
<text text-anchor="middle" x="811" y="-366.8" font-family="Times,serif" font-size="14.00">Target</text>
</g>
<!-- PU_DNC&#45;&gt;PU_DefenseTech -->
<g id="edge39" class="edge">
<title>PU_DNC&#45;&gt;PU_DefenseTech</title>
<path fill="none" stroke="black" d="M686.02,-350.81C701.8,-354.27 718.71,-357.98 734.8,-361.51"/>
<polygon fill="black" stroke="black" points="734.18,-364.96 744.7,-363.68 735.68,-358.12 734.18,-364.96"/>
</g>
</g>
</svg>
