<?xml version="1.0" encoding="UTF-8" standalone="no"?>
<svg
   xmlns:dc="http://purl.org/dc/elements/1.1/"
   xmlns:cc="http://creativecommons.org/ns#"
   xmlns:rdf="http://www.w3.org/1999/02/22-rdf-syntax-ns#"
   xmlns:svg="http://www.w3.org/2000/svg"
   xmlns="http://www.w3.org/2000/svg"
   xmlns:sodipodi="http://sodipodi.sourceforge.net/DTD/sodipodi-0.dtd"
   xmlns:inkscape="http://www.inkscape.org/namespaces/inkscape"
   id="svg"
   version="1.1"
   width="400"
   height="400"
   viewBox="0 0 400 400"
   sodipodi:docname="openrisc.svg"
   inkscape:version="0.92.4 5da689c313, 2019-01-14">
  <metadata
     id="metadata10">
    <rdf:RDF>
      <cc:Work
         rdf:about="">
        <dc:format>image/svg+xml</dc:format>
        <dc:type
           rdf:resource="http://purl.org/dc/dcmitype/StillImage" />
        <dc:title></dc:title>
      </cc:Work>
    </rdf:RDF>
  </metadata>
  <defs
     id="defs8" />
  <sodipodi:namedview
     pagecolor="#ffffff"
     bordercolor="#666666"
     borderopacity="1"
     objecttolerance="10"
     gridtolerance="10"
     guidetolerance="10"
     inkscape:pageopacity="0"
     inkscape:pageshadow="2"
     inkscape:window-width="1533"
     inkscape:window-height="845"
     id="namedview6"
     showgrid="false"
     fit-margin-top="0"
     fit-margin-left="0"
     fit-margin-right="0"
     fit-margin-bottom="0"
     inkscape:zoom="0.5"
     inkscape:cx="19.757446"
     inkscape:cy="200"
     inkscape:window-x="67"
     inkscape:window-y="27"
     inkscape:window-maximized="1"
     inkscape:current-layer="svg" />
  <g
     id="svgg">
    <path
       id="path0"
       d="M 0,200 V 400 H 200 400 V 200 0 H 200 0 V 200 M 148.511,14.904 c 0.672,0.441 2.24,0.795 4.182,0.946 2.001,0.155 3.845,0.58 5.182,1.195 1.142,0.525 2.388,0.955 2.771,0.955 0.962,0 8.66,3.764 9.317,4.555 0.294,0.355 0.873,0.645 1.286,0.645 0.413,0 0.751,0.264 0.751,0.586 0,0.322 0.404,0.802 0.898,1.067 1.174,0.628 4.075,3.552 4.413,4.447 0.145,0.385 0.54,0.7 0.876,0.7 0.337,0 0.613,0.257 0.613,0.571 0,0.315 0.296,0.868 0.658,1.229 1.037,1.038 2.542,3.384 2.542,3.964 0,0.29 0.386,1.019 0.859,1.62 0.472,0.6 1.013,1.929 1.203,2.954 0.189,1.024 0.614,2.063 0.945,2.309 0.358,0.266 0.744,1.563 0.952,3.2 0.193,1.514 0.686,3.833 1.096,5.153 1.137,3.661 1.17,293.539 0.034,296.908 -0.391,1.16 -0.886,3.493 -1.101,5.185 -0.244,1.925 -0.605,3.197 -0.965,3.398 -0.317,0.177 -0.701,1.158 -0.854,2.179 -0.153,1.021 -0.704,2.483 -1.224,3.249 -0.52,0.766 -0.945,1.63 -0.945,1.919 0,0.571 -1.607,3.174 -2.59,4.196 -0.336,0.348 -0.61,0.933 -0.61,1.3 0,0.366 -0.264,0.666 -0.586,0.666 -0.322,0 -0.769,0.343 -0.994,0.762 -0.224,0.42 -1.266,1.58 -2.314,2.578 -1.048,0.999 -2.285,2.186 -2.748,2.638 -0.463,0.452 -1.02,0.822 -1.238,0.822 -0.218,0 -0.707,0.344 -1.087,0.763 -0.38,0.42 -1.263,0.993 -1.962,1.273 -0.699,0.281 -1.7,0.837 -2.225,1.237 -0.525,0.4 -1.268,0.727 -1.651,0.727 -0.383,0 -0.909,0.256 -1.169,0.569 -0.26,0.313 -1.227,0.692 -2.149,0.843 -0.922,0.151 -1.981,0.543 -2.351,0.87 -0.376,0.332 -2.146,0.77 -4,0.989 -1.83,0.216 -3.776,0.694 -4.326,1.061 -1.554,1.038 -95.945,1.027 -97.842,-0.012 -0.683,-0.374 -2.737,-0.868 -4.565,-1.097 -1.828,-0.229 -3.614,-0.68 -3.969,-1.001 -0.355,-0.321 -1.402,-0.705 -2.327,-0.853 -0.925,-0.148 -1.887,-0.516 -2.138,-0.819 -0.252,-0.302 -0.714,-0.55 -1.029,-0.55 -0.315,0 -1.235,-0.45 -2.044,-1 -0.809,-0.55 -1.691,-1 -1.958,-1 -0.268,0 -0.972,-0.45 -1.566,-1 -0.593,-0.55 -1.413,-1 -1.82,-1 -0.475,0 -0.742,-0.288 -0.742,-0.8 0,-0.44 -0.24,-0.8 -0.534,-0.8 -0.599,0 -4.078,-3.301 -4.695,-4.454 -0.22,-0.41 -0.663,-0.746 -0.985,-0.746 -0.322,0 -0.586,-0.35 -0.586,-0.777 0,-0.428 -0.32,-1.013 -0.71,-1.3 -0.391,-0.288 -1.303,-1.783 -2.026,-3.323 -0.723,-1.54 -1.551,-3.25 -1.838,-3.8 -0.288,-0.55 -0.651,-1.72 -0.808,-2.6 -0.157,-0.88 -0.549,-1.894 -0.871,-2.253 -0.349,-0.389 -0.741,-2.167 -0.971,-4.4 -0.212,-2.061 -0.654,-4.316 -0.983,-5.012 -0.826,-1.749 -0.715,-292.425 0.112,-293.421 0.278,-0.335 0.671,-2.36 0.874,-4.501 0.228,-2.415 0.593,-4.142 0.961,-4.552 0.326,-0.364 0.721,-1.381 0.878,-2.261 0.269,-1.507 0.741,-2.655 2.058,-5 0.309,-0.55 0.907,-1.765 1.329,-2.7 0.421,-0.935 0.935,-1.7 1.142,-1.7 0.206,0 0.563,-0.54 0.793,-1.2 0.23,-0.66 0.698,-1.2 1.039,-1.2 0.342,0 0.621,-0.244 0.621,-0.543 0,-0.707 3.95,-4.657 4.657,-4.657 0.299,0 0.543,-0.279 0.543,-0.621 0,-0.341 0.54,-0.809 1.2,-1.039 0.66,-0.23 1.2,-0.564 1.2,-0.742 0,-0.431 7.897,-4.398 8.757,-4.398 0.37,0 1.387,-0.37 2.258,-0.823 0.962,-0.499 2.99,-0.972 5.158,-1.204 2.046,-0.218 3.845,-0.627 4.208,-0.956 1.373,-1.243 93.839,-1.351 95.73,-0.113 M 346.4,14.921 c 0.795,0.409 2.916,0.861 4.909,1.046 2.166,0.201 3.773,0.558 4.2,0.934 0.38,0.335 1.674,0.815 2.876,1.068 1.202,0.252 2.282,0.588 2.4,0.745 0.294,0.392 4.596,2.486 5.106,2.486 0.226,0 0.658,0.298 0.96,0.662 0.302,0.364 1.134,0.906 1.849,1.205 0.715,0.299 1.3,0.811 1.3,1.138 0,0.327 0.24,0.595 0.534,0.595 0.599,0 4.078,3.301 4.695,4.454 0.22,0.41 0.663,0.746 0.985,0.746 0.322,0 0.586,0.35 0.586,0.777 0,0.428 0.317,1.013 0.704,1.3 0.783,0.581 3.296,5.222 3.296,6.086 0,0.303 0.247,0.646 0.55,0.762 0.302,0.116 0.678,1.081 0.835,2.143 0.158,1.063 0.564,2.242 0.903,2.621 0.392,0.439 0.755,2.099 0.997,4.564 0.233,2.374 0.639,4.27 1.048,4.894 1.08,1.649 1.023,186.944 -0.058,188.595 -0.452,0.69 -0.806,2.191 -0.94,3.983 -0.139,1.867 -0.475,3.246 -0.957,3.935 -0.408,0.583 -0.87,1.573 -1.026,2.2 -0.351,1.409 -1.578,3.667 -2.591,4.766 -0.419,0.454 -0.761,0.969 -0.761,1.143 0,0.275 -2.873,3.164 -5.4,5.432 -0.44,0.394 -1.79,1.222 -3,1.838 -1.21,0.616 -2.295,1.256 -2.412,1.422 -0.117,0.166 -1.017,0.423 -2,0.571 -0.983,0.149 -2.349,0.607 -3.035,1.019 -0.709,0.426 -2.004,0.75 -3,0.752 -0.964,0.002 -2.698,0.117 -3.853,0.256 l -2.1,0.252 v 4.339 4.339 l 1.5,0.631 c 0.825,0.347 2.76,0.869 4.3,1.159 3.148,0.594 7.306,2.07 8.119,2.883 0.296,0.296 0.873,0.538 1.283,0.538 0.409,0 0.852,0.339 0.983,0.752 0.134,0.422 0.756,0.856 1.415,0.988 0.648,0.13 1.881,0.961 2.742,1.848 0.86,0.886 1.753,1.612 1.984,1.612 0.231,0 0.534,0.36 0.674,0.8 0.14,0.441 0.602,0.987 1.027,1.214 0.425,0.228 0.773,0.567 0.773,0.754 0,0.188 0.696,1.396 1.546,2.686 0.851,1.29 1.675,2.886 1.831,3.546 0.157,0.66 0.56,1.505 0.896,1.878 0.357,0.396 0.765,2.052 0.981,3.989 0.215,1.918 0.66,3.737 1.058,4.322 0.692,1.017 1.363,74.864 0.705,77.488 l -0.232,0.923 -37.693,-0.005 c -20.73,-0.003 -38.097,-0.114 -38.592,-0.247 l -0.9,-0.241 v -44.504 c 0,-44.749 -0.05,-47.003 -1.041,-47.003 -0.297,0 -0.835,-0.45 -1.196,-1 -0.36,-0.55 -0.882,-1 -1.16,-1 -0.278,0 -0.729,-0.27 -1.003,-0.6 -1.472,-1.774 -11.151,-0.244 -11.822,1.868 -0.127,0.403 -0.355,0.735 -0.505,0.738 -1.506,0.034 -1.465,-1.121 -1.673,46.279 l -0.2,45.515 h -38.6 -38.6 l -0.1,-185.576 c -0.081,-148.194 0,-185.642 0.4,-185.902 1.175,-0.767 131.989,-0.179 133.5,0.599 M 97.2,49.494 c -1.059,0.407 -3.2,2.186 -3.2,2.659 0,0.251 -0.405,0.635 -0.9,0.852 l -0.9,0.395 -0.101,148.212 -0.1,148.212 2.086,2.188 2.086,2.188 3.762,0.14 c 4.819,0.18 8.067,-0.207 8.067,-0.96 0,-0.309 0.405,-0.827 0.9,-1.152 2.524,-1.655 2.321,12.234 2.205,-150.86 L 111,53.737 109.198,51.935 c -0.991,-0.991 -2.194,-2.012 -2.673,-2.268 -0.886,-0.474 -8.189,-0.61 -9.325,-0.173 m 196.37,0.435 c -0.567,0.369 -1.647,1.376 -2.4,2.238 l -1.37,1.566 v 96.673 96.674 l 2.138,2.06 2.137,2.06 h 5.104 c 5.211,0 7.221,-0.663 7.221,-2.381 0,-0.23 0.274,-0.419 0.61,-0.419 0.335,0 0.785,-0.462 1,-1.026 0.589,-1.55 0.53,-193.166 -0.061,-194.269 -0.483,-0.904 -2.338,-2.599 -3.708,-3.391 -1.353,-0.781 -9.389,-0.619 -10.671,0.215"
       inkscape:connector-curvature="0"
       style="fill:#507169;fill-rule:evenodd;stroke:none" />
    <path
       id="path1"
       d="m 56.008,14.288 c -1.49,0.089 -2.862,0.399 -3.227,0.729 -0.363,0.329 -2.162,0.738 -4.208,0.956 -2.168,0.232 -4.196,0.705 -5.158,1.204 C 42.544,17.63 41.527,18 41.157,18 c -0.86,0 -8.757,3.967 -8.757,4.398 0,0.178 -0.54,0.512 -1.2,0.742 -0.66,0.23 -1.2,0.698 -1.2,1.039 0,0.342 -0.244,0.621 -0.543,0.621 -0.707,0 -4.657,3.95 -4.657,4.657 0,0.299 -0.279,0.543 -0.621,0.543 -0.341,0 -0.809,0.54 -1.039,1.2 -0.23,0.66 -0.587,1.2 -0.793,1.2 -0.207,0 -0.721,0.765 -1.142,1.7 -0.422,0.935 -1.02,2.15 -1.329,2.7 -1.317,2.345 -1.789,3.493 -2.058,5 -0.157,0.88 -0.552,1.897 -0.878,2.261 -0.368,0.41 -0.733,2.137 -0.961,4.552 -0.203,2.141 -0.596,4.166 -0.874,4.501 -0.827,0.996 -0.938,291.672 -0.112,293.421 0.329,0.696 0.771,2.951 0.983,5.012 0.23,2.233 0.622,4.011 0.971,4.4 0.322,0.359 0.714,1.373 0.871,2.253 0.157,0.88 0.52,2.05 0.808,2.6 0.287,0.55 1.115,2.26 1.838,3.8 0.723,1.54 1.635,3.035 2.026,3.323 0.39,0.287 0.71,0.872 0.71,1.3 0,0.427 0.264,0.777 0.586,0.777 0.322,0 0.765,0.336 0.985,0.746 0.617,1.153 4.096,4.454 4.695,4.454 0.294,0 0.534,0.36 0.534,0.8 0,0.512 0.267,0.8 0.742,0.8 0.407,0 1.227,0.45 1.82,1 0.594,0.55 1.298,1 1.566,1 0.267,0 1.149,0.45 1.958,1 0.809,0.55 1.729,1 2.044,1 0.315,0 0.777,0.248 1.029,0.55 0.251,0.303 1.213,0.671 2.138,0.819 0.925,0.148 1.972,0.532 2.327,0.853 0.355,0.321 2.141,0.772 3.969,1.001 1.828,0.229 3.882,0.723 4.565,1.097 1.897,1.039 96.288,1.05 97.842,0.012 0.55,-0.367 2.496,-0.845 4.326,-1.061 1.854,-0.219 3.624,-0.657 4,-0.989 0.37,-0.327 1.429,-0.719 2.351,-0.87 0.922,-0.151 1.889,-0.53 2.149,-0.843 0.26,-0.313 0.786,-0.569 1.169,-0.569 0.383,0 1.126,-0.327 1.651,-0.727 0.525,-0.4 1.526,-0.956 2.225,-1.237 0.699,-0.28 1.582,-0.853 1.962,-1.273 0.38,-0.419 0.869,-0.763 1.087,-0.763 0.218,0 0.775,-0.37 1.238,-0.822 0.463,-0.452 1.7,-1.639 2.748,-2.638 1.048,-0.998 2.09,-2.158 2.314,-2.578 0.225,-0.419 0.672,-0.762 0.994,-0.762 0.322,0 0.586,-0.3 0.586,-0.666 0,-0.367 0.274,-0.952 0.61,-1.3 0.983,-1.022 2.59,-3.625 2.59,-4.196 0,-0.289 0.425,-1.153 0.945,-1.919 0.52,-0.766 1.071,-2.228 1.224,-3.249 0.153,-1.021 0.537,-2.002 0.854,-2.179 0.36,-0.201 0.721,-1.473 0.965,-3.398 0.215,-1.692 0.71,-4.025 1.101,-5.185 1.136,-3.369 1.103,-293.247 -0.034,-296.908 -0.41,-1.32 -0.903,-3.639 -1.096,-5.153 -0.208,-1.637 -0.594,-2.934 -0.952,-3.2 -0.331,-0.246 -0.756,-1.285 -0.945,-2.309 -0.19,-1.025 -0.731,-2.354 -1.203,-2.954 -0.473,-0.601 -0.859,-1.33 -0.859,-1.62 0,-0.58 -1.505,-2.926 -2.542,-3.964 -0.362,-0.361 -0.658,-0.914 -0.658,-1.229 0,-0.314 -0.276,-0.571 -0.613,-0.571 -0.336,0 -0.731,-0.315 -0.876,-0.7 -0.338,-0.895 -3.239,-3.819 -4.413,-4.447 C 172.404,24.588 172,24.108 172,23.786 c 0,-0.322 -0.338,-0.586 -0.751,-0.586 -0.413,0 -0.992,-0.29 -1.286,-0.645 C 169.306,21.764 161.608,18 160.646,18 c -0.383,0 -1.629,-0.43 -2.771,-0.955 -1.337,-0.615 -3.181,-1.04 -5.182,-1.195 -1.942,-0.151 -3.51,-0.505 -4.182,-0.946 -1.018,-0.667 -82.552,-1.21 -92.503,-0.616 M 212.9,14.322 c -0.4,0.26 -0.481,37.708 -0.4,185.902 l 0.1,185.576 h 38.6 38.6 l 0.2,-45.515 c 0.208,-47.4 0.167,-46.245 1.673,-46.279 0.15,-0.003 0.378,-0.335 0.505,-0.738 0.671,-2.112 10.35,-3.642 11.822,-1.868 0.274,0.33 0.725,0.6 1.003,0.6 0.278,0 0.8,0.45 1.16,1 0.361,0.55 0.899,1 1.196,1 0.991,0 1.041,2.254 1.041,47.003 v 44.504 l 0.9,0.241 c 0.495,0.133 17.862,0.244 38.592,0.247 l 37.693,0.005 0.232,-0.923 c 0.658,-2.624 -0.013,-76.471 -0.705,-77.488 -0.398,-0.585 -0.843,-2.404 -1.058,-4.322 -0.216,-1.937 -0.624,-3.593 -0.981,-3.989 -0.336,-0.373 -0.739,-1.218 -0.896,-1.878 -0.156,-0.66 -0.98,-2.256 -1.831,-3.546 -0.85,-1.29 -1.546,-2.498 -1.546,-2.686 0,-0.187 -0.348,-0.526 -0.773,-0.754 -0.425,-0.227 -0.887,-0.773 -1.027,-1.214 -0.14,-0.44 -0.443,-0.8 -0.674,-0.8 -0.231,0 -1.124,-0.726 -1.984,-1.612 -0.861,-0.887 -2.094,-1.718 -2.742,-1.848 -0.659,-0.132 -1.281,-0.566 -1.415,-0.988 -0.131,-0.413 -0.574,-0.752 -0.983,-0.752 -0.41,0 -0.987,-0.242 -1.283,-0.538 -0.813,-0.813 -4.971,-2.289 -8.119,-2.883 -1.54,-0.29 -3.475,-0.812 -4.3,-1.159 l -1.5,-0.631 v -4.339 -4.339 l 2.1,-0.252 c 1.155,-0.139 2.889,-0.254 3.853,-0.256 0.996,-0.002 2.291,-0.326 3,-0.752 0.686,-0.412 2.052,-0.87 3.035,-1.019 0.983,-0.148 1.883,-0.405 2,-0.571 0.117,-0.166 1.202,-0.806 2.412,-1.422 1.21,-0.616 2.56,-1.444 3,-1.838 2.527,-2.268 5.4,-5.157 5.4,-5.432 0,-0.174 0.342,-0.689 0.761,-1.143 1.013,-1.099 2.24,-3.357 2.591,-4.766 0.156,-0.627 0.618,-1.617 1.026,-2.2 0.482,-0.689 0.818,-2.068 0.957,-3.935 0.134,-1.792 0.488,-3.293 0.94,-3.983 1.081,-1.651 1.138,-186.946 0.058,-188.595 -0.409,-0.624 -0.815,-2.52 -1.048,-4.894 -0.242,-2.465 -0.605,-4.125 -0.997,-4.564 -0.339,-0.379 -0.745,-1.558 -0.903,-2.621 -0.157,-1.062 -0.533,-2.027 -0.835,-2.143 -0.303,-0.116 -0.55,-0.459 -0.55,-0.762 0,-0.864 -2.513,-5.505 -3.296,-6.086 -0.387,-0.287 -0.704,-0.872 -0.704,-1.3 0,-0.427 -0.264,-0.777 -0.586,-0.777 -0.322,0 -0.765,-0.336 -0.985,-0.746 -0.617,-1.153 -4.096,-4.454 -4.695,-4.454 -0.294,0 -0.534,-0.268 -0.534,-0.595 0,-0.327 -0.585,-0.839 -1.3,-1.138 -0.715,-0.299 -1.547,-0.841 -1.849,-1.205 -0.302,-0.364 -0.734,-0.662 -0.96,-0.662 -0.51,0 -4.812,-2.094 -5.106,-2.486 -0.118,-0.157 -1.198,-0.493 -2.4,-0.745 -1.202,-0.253 -2.496,-0.733 -2.876,-1.068 -0.427,-0.376 -2.034,-0.733 -4.2,-0.934 -1.993,-0.185 -4.114,-0.637 -4.909,-1.046 -1.511,-0.778 -132.325,-1.366 -133.5,-0.599 M 106.525,49.667 c 0.479,0.256 1.682,1.277 2.673,2.268 l 1.802,1.802 0.105,147.631 c 0.116,163.094 0.319,149.205 -2.205,150.86 -0.495,0.325 -0.9,0.843 -0.9,1.152 0,0.753 -3.248,1.14 -8.067,0.96 l -3.762,-0.14 -2.086,-2.188 -2.086,-2.188 0.1,-148.212 L 92.2,53.4 93.1,53.005 c 0.495,-0.217 0.9,-0.601 0.9,-0.852 0,-0.473 2.141,-2.252 3.2,-2.659 1.136,-0.437 8.439,-0.301 9.325,0.173 m 197.716,0.047 c 1.37,0.792 3.225,2.487 3.708,3.391 0.591,1.103 0.65,192.719 0.061,194.269 -0.215,0.564 -0.665,1.026 -1,1.026 -0.336,0 -0.61,0.189 -0.61,0.419 0,1.718 -2.01,2.381 -7.221,2.381 h -5.104 l -2.137,-2.06 -2.138,-2.06 V 150.406 53.733 l 1.37,-1.566 c 2.357,-2.697 2.919,-2.907 7.83,-2.924 2.75,-0.009 4.715,0.168 5.241,0.471"
       inkscape:connector-curvature="0"
       style="fill:#fbfbfb;fill-rule:evenodd;stroke:none" />
  </g>
</svg>
