<?xml version="1.0" encoding="UTF-8" standalone="no"?>
<!DOCTYPE svg PUBLIC "-//W3C//DTD SVG 1.1//EN"
 "http://www.w3.org/Graphics/SVG/1.1/DTD/svg11.dtd">
<!-- Generated by graphviz version 2.43.0 (0)
 -->
<!-- Title: Project Pages: 1 -->
<svg width="899pt" height="559pt"
 viewBox="0.00 0.00 899.00 559.00" xmlns="http://www.w3.org/2000/svg" xmlns:xlink="http://www.w3.org/1999/xlink">
<g id="graph0" class="graph" transform="scale(1 1) rotate(0) translate(4 555)">
<title>Project</title>
<polygon fill="white" stroke="transparent" points="-4,4 -4,-555 895,-555 895,4 -4,4"/>
<g id="clust1" class="cluster">
<title>cluster PeripheralBlocks</title>
<polygon fill="none" stroke="black" points="8,-8 8,-543 156,-543 156,-8 8,-8"/>
<text text-anchor="middle" x="82" y="-527.8" font-family="Times,serif" font-size="14.00">Peripheral Blocks</text>
</g>
<g id="clust2" class="cluster">
<title>cluster ArchitectureBlocks</title>
<polygon fill="none" stroke="black" points="176,-157 176,-394 333,-394 333,-157 176,-157"/>
<text text-anchor="middle" x="254.5" y="-378.8" font-family="Times,serif" font-size="14.00">Architecture Blocks</text>
</g>
<g id="clust3" class="cluster">
<title>cluster EnvironmentBlocks</title>
<polygon fill="none" stroke="black" points="353,-157 353,-394 514,-394 514,-157 353,-157"/>
<text text-anchor="middle" x="433.5" y="-378.8" font-family="Times,serif" font-size="14.00">Environment Blocks</text>
</g>
<g id="clust4" class="cluster">
<title>cluster AcceleratorBlocks</title>
<polygon fill="none" stroke="black" points="534,-157 534,-394 683,-394 683,-157 534,-157"/>
<text text-anchor="middle" x="608.5" y="-378.8" font-family="Times,serif" font-size="14.00">Accelerator Blocks</text>
</g>
<g id="clust5" class="cluster">
<title>cluster TargetBlocks</title>
<polygon fill="none" stroke="black" points="703,-8 703,-543 883,-543 883,-8 703,-8"/>
<text text-anchor="middle" x="793" y="-527.8" font-family="Times,serif" font-size="14.00">Target Blocks</text>
</g>
<!-- MPSoC_DBG -->
<g id="node1" class="node">
<title>MPSoC_DBG</title>
<polygon fill="none" stroke="black" points="28.5,-131 28.5,-169 135.5,-169 135.5,-131 28.5,-131"/>
<text text-anchor="middle" x="82" y="-153.8" font-family="Times,serif" font-size="14.00">MPSoC&#45;DBG</text>
<text text-anchor="middle" x="82" y="-138.8" font-family="Times,serif" font-size="14.00">Peripheral</text>
</g>
<!-- MPSoC_RISCV -->
<g id="node10" class="node">
<title>MPSoC_RISCV</title>
<polygon fill="none" stroke="black" points="193,-165.5 193,-218.5 315,-218.5 315,-165.5 193,-165.5"/>
<text text-anchor="middle" x="254" y="-203.3" font-family="Times,serif" font-size="14.00">MPSoC&#45;RISCV</text>
<text text-anchor="middle" x="254" y="-188.3" font-family="Times,serif" font-size="14.00">Architecture</text>
<text text-anchor="middle" x="254" y="-173.3" font-family="Times,serif" font-size="14.00">rv64&#45;pvt&#45;gcfdq</text>
</g>
<!-- MPSoC_DBG&#45;&gt;MPSoC_RISCV -->
<g id="edge1" class="edge">
<title>MPSoC_DBG&#45;&gt;MPSoC_RISCV</title>
<path fill="none" stroke="black" d="M135.86,-163.06C150.65,-166.71 166.96,-170.74 182.6,-174.61"/>
<polygon fill="black" stroke="black" points="182.2,-178.11 192.75,-177.12 183.88,-171.32 182.2,-178.11"/>
</g>
<!-- SoC_RISCV -->
<g id="node11" class="node">
<title>SoC_RISCV</title>
<polygon fill="none" stroke="black" points="196,-237.5 196,-290.5 312,-290.5 312,-237.5 196,-237.5"/>
<text text-anchor="middle" x="254" y="-275.3" font-family="Times,serif" font-size="14.00">SoC&#45;RISCV</text>
<text text-anchor="middle" x="254" y="-260.3" font-family="Times,serif" font-size="14.00">Architecture</text>
<text text-anchor="middle" x="254" y="-245.3" font-family="Times,serif" font-size="14.00">rv64&#45;pv&#45;gcfdq</text>
</g>
<!-- MPSoC_DBG&#45;&gt;SoC_RISCV -->
<g id="edge10" class="edge">
<title>MPSoC_DBG&#45;&gt;SoC_RISCV</title>
<path fill="none" stroke="black" d="M135.63,-164.84C143.09,-168.59 150.19,-173.24 156,-179 172.71,-195.55 159.79,-210.96 176,-228 179.38,-231.55 183.18,-234.79 187.24,-237.74"/>
<polygon fill="black" stroke="black" points="185.59,-240.84 195.87,-243.38 189.41,-234.98 185.59,-240.84"/>
</g>
<!-- PU_RISCV -->
<g id="node12" class="node">
<title>PU_RISCV</title>
<polygon fill="none" stroke="black" points="200.5,-309.5 200.5,-362.5 307.5,-362.5 307.5,-309.5 200.5,-309.5"/>
<text text-anchor="middle" x="254" y="-347.3" font-family="Times,serif" font-size="14.00">PU&#45;RISCV</text>
<text text-anchor="middle" x="254" y="-332.3" font-family="Times,serif" font-size="14.00">Architecture</text>
<text text-anchor="middle" x="254" y="-317.3" font-family="Times,serif" font-size="14.00">rv64&#45;p&#45;gcfdq</text>
</g>
<!-- MPSoC_DBG&#45;&gt;PU_RISCV -->
<g id="edge19" class="edge">
<title>MPSoC_DBG&#45;&gt;PU_RISCV</title>
<path fill="none" stroke="black" d="M135.72,-163.19C143.45,-167.16 150.61,-172.31 156,-179 190.2,-221.44 143.07,-256.56 176,-300 180.25,-305.61 185.59,-310.38 191.47,-314.43"/>
<polygon fill="black" stroke="black" points="190.04,-317.65 200.4,-319.85 193.67,-311.67 190.04,-317.65"/>
</g>
<!-- MPSoC_DMA -->
<g id="node2" class="node">
<title>MPSoC_DMA</title>
<polygon fill="none" stroke="black" points="27.5,-74 27.5,-112 136.5,-112 136.5,-74 27.5,-74"/>
<text text-anchor="middle" x="82" y="-96.8" font-family="Times,serif" font-size="14.00">MPSoC&#45;DMA</text>
<text text-anchor="middle" x="82" y="-81.8" font-family="Times,serif" font-size="14.00">Peripheral</text>
</g>
<!-- MPSoC_DMA&#45;&gt;MPSoC_RISCV -->
<g id="edge2" class="edge">
<title>MPSoC_DMA&#45;&gt;MPSoC_RISCV</title>
<path fill="none" stroke="black" d="M135.57,-112.06C142.56,-115.12 149.54,-118.46 156,-122 175.4,-132.64 195.46,-146.55 212.27,-159.17"/>
<polygon fill="black" stroke="black" points="210.16,-161.96 220.24,-165.24 214.4,-156.39 210.16,-161.96"/>
</g>
<!-- MPSoC_DMA&#45;&gt;SoC_RISCV -->
<g id="edge11" class="edge">
<title>MPSoC_DMA&#45;&gt;SoC_RISCV</title>
<path fill="none" stroke="black" d="M136.7,-106.87C144.02,-110.74 150.79,-115.69 156,-122 186.5,-158.99 146.61,-190.13 176,-228 179.25,-232.19 183.11,-235.92 187.34,-239.22"/>
<polygon fill="black" stroke="black" points="185.64,-242.3 195.87,-245.07 189.6,-236.53 185.64,-242.3"/>
</g>
<!-- MPSoC_DMA&#45;&gt;PU_RISCV -->
<g id="edge20" class="edge">
<title>MPSoC_DMA&#45;&gt;PU_RISCV</title>
<path fill="none" stroke="black" d="M136.75,-106.34C144.16,-110.28 150.95,-115.39 156,-122 204.32,-185.27 129.57,-235.33 176,-300 180.26,-305.93 185.75,-310.92 191.84,-315.1"/>
<polygon fill="black" stroke="black" points="190.08,-318.13 200.45,-320.32 193.71,-312.14 190.08,-318.13"/>
</g>
<!-- MPSoC_GPIO -->
<g id="node3" class="node">
<title>MPSoC_GPIO</title>
<polygon fill="none" stroke="black" points="26.5,-473 26.5,-511 137.5,-511 137.5,-473 26.5,-473"/>
<text text-anchor="middle" x="82" y="-495.8" font-family="Times,serif" font-size="14.00">MPSoC&#45;GPIO</text>
<text text-anchor="middle" x="82" y="-480.8" font-family="Times,serif" font-size="14.00">Peripheral</text>
</g>
<!-- MPSoC_GPIO&#45;&gt;MPSoC_RISCV -->
<g id="edge3" class="edge">
<title>MPSoC_GPIO&#45;&gt;MPSoC_RISCV</title>
<path fill="none" stroke="black" d="M137.61,-479.15C144.72,-475.34 151.19,-470.4 156,-464 187.62,-421.93 145.89,-271.17 176,-228 178.52,-224.39 181.49,-221.14 184.78,-218.2"/>
<polygon fill="black" stroke="black" points="187.17,-220.77 192.97,-211.91 182.91,-215.22 187.17,-220.77"/>
</g>
<!-- MPSoC_GPIO&#45;&gt;SoC_RISCV -->
<g id="edge12" class="edge">
<title>MPSoC_GPIO&#45;&gt;SoC_RISCV</title>
<path fill="none" stroke="black" d="M137.76,-478.8C144.76,-475.04 151.15,-470.21 156,-464 201.19,-406.12 132.89,-359.44 176,-300 179.25,-295.52 183.2,-291.58 187.57,-288.12"/>
<polygon fill="black" stroke="black" points="189.62,-290.96 195.85,-282.39 185.63,-285.2 189.62,-290.96"/>
</g>
<!-- MPSoC_GPIO&#45;&gt;PU_RISCV -->
<g id="edge21" class="edge">
<title>MPSoC_GPIO&#45;&gt;PU_RISCV</title>
<path fill="none" stroke="black" d="M137.81,-474.89C144.24,-471.77 150.47,-468.16 156,-464 189.19,-439.07 216.58,-399.84 233.7,-371.38"/>
<polygon fill="black" stroke="black" points="236.84,-372.94 238.89,-362.55 230.8,-369.4 236.84,-372.94"/>
</g>
<!-- MPSoC_MPI -->
<g id="node4" class="node">
<title>MPSoC_MPI</title>
<polygon fill="none" stroke="black" points="30.5,-416 30.5,-454 133.5,-454 133.5,-416 30.5,-416"/>
<text text-anchor="middle" x="82" y="-438.8" font-family="Times,serif" font-size="14.00">MPSoC&#45;MPI</text>
<text text-anchor="middle" x="82" y="-423.8" font-family="Times,serif" font-size="14.00">Peripheral</text>
</g>
<!-- MPSoC_MPI&#45;&gt;MPSoC_RISCV -->
<g id="edge4" class="edge">
<title>MPSoC_MPI&#45;&gt;MPSoC_RISCV</title>
<path fill="none" stroke="black" d="M133.78,-423.87C142.33,-419.86 150.27,-414.41 156,-407 204.95,-343.66 129.33,-293.04 176,-228 178.52,-224.49 181.46,-221.32 184.71,-218.44"/>
<polygon fill="black" stroke="black" points="186.95,-221.13 192.76,-212.27 182.7,-215.58 186.95,-221.13"/>
</g>
<!-- MPSoC_MPI&#45;&gt;SoC_RISCV -->
<g id="edge13" class="edge">
<title>MPSoC_MPI&#45;&gt;SoC_RISCV</title>
<path fill="none" stroke="black" d="M133.72,-423.35C142.17,-419.39 150.09,-414.09 156,-407 186.97,-369.83 146.37,-338.25 176,-300 179.25,-295.81 183.1,-292.08 187.33,-288.77"/>
<polygon fill="black" stroke="black" points="189.6,-291.46 195.86,-282.92 185.63,-285.69 189.6,-291.46"/>
</g>
<!-- MPSoC_MPI&#45;&gt;PU_RISCV -->
<g id="edge22" class="edge">
<title>MPSoC_MPI&#45;&gt;PU_RISCV</title>
<path fill="none" stroke="black" d="M133.66,-417.59C141.3,-414.39 148.97,-410.83 156,-407 175.84,-396.18 196.25,-381.82 213.2,-368.84"/>
<polygon fill="black" stroke="black" points="215.48,-371.5 221.23,-362.6 211.18,-365.97 215.48,-371.5"/>
</g>
<!-- MPSoC_MPRAM -->
<g id="node5" class="node">
<title>MPSoC_MPRAM</title>
<polygon fill="none" stroke="black" points="16,-359 16,-397 148,-397 148,-359 16,-359"/>
<text text-anchor="middle" x="82" y="-381.8" font-family="Times,serif" font-size="14.00">MPSoC&#45;MPRAM</text>
<text text-anchor="middle" x="82" y="-366.8" font-family="Times,serif" font-size="14.00">Peripheral</text>
</g>
<!-- MPSoC_MPRAM&#45;&gt;MPSoC_RISCV -->
<g id="edge5" class="edge">
<title>MPSoC_MPRAM&#45;&gt;MPSoC_RISCV</title>
<path fill="none" stroke="black" d="M146.56,-358.94C150.06,-356.33 153.26,-353.37 156,-350 190.7,-307.4 142.84,-271.81 176,-228 178.48,-224.72 181.34,-221.72 184.46,-218.99"/>
<polygon fill="black" stroke="black" points="186.85,-221.58 192.69,-212.74 182.61,-216 186.85,-221.58"/>
</g>
<!-- MPSoC_MPRAM&#45;&gt;SoC_RISCV -->
<g id="edge14" class="edge">
<title>MPSoC_MPRAM&#45;&gt;SoC_RISCV</title>
<path fill="none" stroke="black" d="M144.72,-358.88C148.79,-356.28 152.62,-353.34 156,-350 173.04,-333.2 159.56,-317.4 176,-300 179.37,-296.43 183.16,-293.19 187.21,-290.23"/>
<polygon fill="black" stroke="black" points="189.39,-292.99 195.83,-284.59 185.55,-287.14 189.39,-292.99"/>
</g>
<!-- MPSoC_MPRAM&#45;&gt;PU_RISCV -->
<g id="edge23" class="edge">
<title>MPSoC_MPRAM&#45;&gt;PU_RISCV</title>
<path fill="none" stroke="black" d="M148.24,-361.88C162.1,-358.46 176.71,-354.85 190.47,-351.45"/>
<polygon fill="black" stroke="black" points="191.45,-354.81 200.32,-349.02 189.77,-348.02 191.45,-354.81"/>
</g>
<!-- MPSoC_MSI -->
<g id="node6" class="node">
<title>MPSoC_MSI</title>
<polygon fill="none" stroke="black" points="30.5,-302 30.5,-340 133.5,-340 133.5,-302 30.5,-302"/>
<text text-anchor="middle" x="82" y="-324.8" font-family="Times,serif" font-size="14.00">MPSoC&#45;MSI</text>
<text text-anchor="middle" x="82" y="-309.8" font-family="Times,serif" font-size="14.00">Peripheral</text>
</g>
<!-- MPSoC_MSI&#45;&gt;MPSoC_RISCV -->
<g id="edge6" class="edge">
<title>MPSoC_MSI&#45;&gt;MPSoC_RISCV</title>
<path fill="none" stroke="black" d="M133.84,-308.44C142.07,-304.58 149.88,-299.55 156,-293 176.64,-270.92 156.16,-250.8 176,-228 178.6,-225.02 181.49,-222.26 184.6,-219.72"/>
<polygon fill="black" stroke="black" points="186.66,-222.55 192.69,-213.85 182.54,-216.89 186.66,-222.55"/>
</g>
<!-- MPSoC_MSI&#45;&gt;SoC_RISCV -->
<g id="edge15" class="edge">
<title>MPSoC_MSI&#45;&gt;SoC_RISCV</title>
<path fill="none" stroke="black" d="M133.55,-304.05C150.06,-298.51 168.67,-292.28 186.19,-286.4"/>
<polygon fill="black" stroke="black" points="187.43,-289.68 195.79,-283.18 185.2,-283.04 187.43,-289.68"/>
</g>
<!-- MPSoC_MSI&#45;&gt;PU_RISCV -->
<g id="edge24" class="edge">
<title>MPSoC_MSI&#45;&gt;PU_RISCV</title>
<path fill="none" stroke="black" d="M133.55,-325.46C151.3,-327.03 171.47,-328.81 190.11,-330.45"/>
<polygon fill="black" stroke="black" points="190.02,-333.96 200.29,-331.35 190.64,-326.98 190.02,-333.96"/>
</g>
<!-- MPSoC_NoC -->
<g id="node7" class="node">
<title>MPSoC_NoC</title>
<polygon fill="none" stroke="black" points="30,-17 30,-55 134,-55 134,-17 30,-17"/>
<text text-anchor="middle" x="82" y="-39.8" font-family="Times,serif" font-size="14.00">MPSoC&#45;NoC</text>
<text text-anchor="middle" x="82" y="-24.8" font-family="Times,serif" font-size="14.00">Peripheral</text>
</g>
<!-- MPSoC_NoC&#45;&gt;MPSoC_RISCV -->
<g id="edge7" class="edge">
<title>MPSoC_NoC&#45;&gt;MPSoC_RISCV</title>
<path fill="none" stroke="black" d="M134.02,-51.33C141.77,-54.83 149.38,-59.03 156,-64 189.19,-88.93 216.58,-128.16 233.7,-156.62"/>
<polygon fill="black" stroke="black" points="230.8,-158.6 238.89,-165.45 236.84,-155.06 230.8,-158.6"/>
</g>
<!-- MPSoC_NoC&#45;&gt;SoC_RISCV -->
<g id="edge16" class="edge">
<title>MPSoC_NoC&#45;&gt;SoC_RISCV</title>
<path fill="none" stroke="black" d="M134.09,-47.35C142.51,-51.34 150.32,-56.72 156,-64 201.19,-121.88 132.89,-168.56 176,-228 179.25,-232.48 183.2,-236.42 187.57,-239.88"/>
<polygon fill="black" stroke="black" points="185.63,-242.8 195.85,-245.61 189.62,-237.04 185.63,-242.8"/>
</g>
<!-- MPSoC_SPRAM -->
<g id="node8" class="node">
<title>MPSoC_SPRAM</title>
<polygon fill="none" stroke="black" points="18,-245 18,-283 146,-283 146,-245 18,-245"/>
<text text-anchor="middle" x="82" y="-267.8" font-family="Times,serif" font-size="14.00">MPSoC&#45;SPRAM</text>
<text text-anchor="middle" x="82" y="-252.8" font-family="Times,serif" font-size="14.00">Peripheral</text>
</g>
<!-- MPSoC_SPRAM&#45;&gt;MPSoC_RISCV -->
<g id="edge8" class="edge">
<title>MPSoC_SPRAM&#45;&gt;MPSoC_RISCV</title>
<path fill="none" stroke="black" d="M133.81,-244.96C141.28,-242.03 148.86,-238.98 156,-236 165.99,-231.82 176.49,-227.25 186.74,-222.69"/>
<polygon fill="black" stroke="black" points="188.36,-225.8 196.06,-218.51 185.5,-219.41 188.36,-225.8"/>
</g>
<!-- MPSoC_SPRAM&#45;&gt;SoC_RISCV -->
<g id="edge17" class="edge">
<title>MPSoC_SPRAM&#45;&gt;SoC_RISCV</title>
<path fill="none" stroke="black" d="M146.3,-264C159.11,-264 172.63,-264 185.58,-264"/>
<polygon fill="black" stroke="black" points="185.82,-267.5 195.82,-264 185.82,-260.5 185.82,-267.5"/>
</g>
<!-- MPSoC_SPRAM&#45;&gt;PU_RISCV -->
<g id="edge25" class="edge">
<title>MPSoC_SPRAM&#45;&gt;PU_RISCV</title>
<path fill="none" stroke="black" d="M131.8,-283.08C139.9,-286.34 148.2,-289.73 156,-293 167.39,-297.79 179.47,-303.01 191.1,-308.13"/>
<polygon fill="black" stroke="black" points="189.74,-311.35 200.3,-312.19 192.57,-304.95 189.74,-311.35"/>
</g>
<!-- MPSoC_UART -->
<g id="node9" class="node">
<title>MPSoC_UART</title>
<polygon fill="none" stroke="black" points="25,-188 25,-226 139,-226 139,-188 25,-188"/>
<text text-anchor="middle" x="82" y="-210.8" font-family="Times,serif" font-size="14.00">MPSoC&#45;UART</text>
<text text-anchor="middle" x="82" y="-195.8" font-family="Times,serif" font-size="14.00">Peripheral</text>
</g>
<!-- MPSoC_UART&#45;&gt;MPSoC_RISCV -->
<g id="edge9" class="edge">
<title>MPSoC_UART&#45;&gt;MPSoC_RISCV</title>
<path fill="none" stroke="black" d="M139.14,-202.05C153.12,-200.81 168.29,-199.47 182.86,-198.19"/>
<polygon fill="black" stroke="black" points="183.18,-201.67 192.83,-197.31 182.56,-194.7 183.18,-201.67"/>
</g>
<!-- MPSoC_UART&#45;&gt;SoC_RISCV -->
<g id="edge18" class="edge">
<title>MPSoC_UART&#45;&gt;SoC_RISCV</title>
<path fill="none" stroke="black" d="M139.14,-225.82C154.19,-230.87 170.62,-236.38 186.19,-241.6"/>
<polygon fill="black" stroke="black" points="185.17,-244.95 195.76,-244.81 187.39,-238.31 185.17,-244.95"/>
</g>
<!-- MPSoC_UART&#45;&gt;PU_RISCV -->
<g id="edge26" class="edge">
<title>MPSoC_UART&#45;&gt;PU_RISCV</title>
<path fill="none" stroke="black" d="M139,-222.99C145.3,-226.52 151.18,-230.8 156,-236 176.26,-257.85 156.39,-277.56 176,-300 180.5,-305.15 185.9,-309.62 191.72,-313.48"/>
<polygon fill="black" stroke="black" points="190.11,-316.59 200.49,-318.71 193.69,-310.58 190.11,-316.59"/>
</g>
<!-- MPSoC_DV -->
<g id="node13" class="node">
<title>MPSoC_DV</title>
<polygon fill="none" stroke="black" points="372,-165.5 372,-218.5 494,-218.5 494,-165.5 372,-165.5"/>
<text text-anchor="middle" x="433" y="-203.3" font-family="Times,serif" font-size="14.00">MPSoC&#45;DV</text>
<text text-anchor="middle" x="433" y="-188.3" font-family="Times,serif" font-size="14.00">Environment</text>
<text text-anchor="middle" x="433" y="-173.3" font-family="Times,serif" font-size="14.00">rv64&#45;pvt&#45;gcfdq</text>
</g>
<!-- MPSoC_RISCV&#45;&gt;MPSoC_DV -->
<g id="edge29" class="edge">
<title>MPSoC_RISCV&#45;&gt;MPSoC_DV</title>
<path fill="none" stroke="black" d="M315.42,-192C330.23,-192 346.21,-192 361.45,-192"/>
<polygon fill="black" stroke="black" points="361.85,-195.5 371.85,-192 361.85,-188.5 361.85,-195.5"/>
</g>
<!-- SoC_DV -->
<g id="node14" class="node">
<title>SoC_DV</title>
<polygon fill="none" stroke="black" points="375,-237.5 375,-290.5 491,-290.5 491,-237.5 375,-237.5"/>
<text text-anchor="middle" x="433" y="-275.3" font-family="Times,serif" font-size="14.00">SoC&#45;DV</text>
<text text-anchor="middle" x="433" y="-260.3" font-family="Times,serif" font-size="14.00">Environment</text>
<text text-anchor="middle" x="433" y="-245.3" font-family="Times,serif" font-size="14.00">rv64&#45;pv&#45;gcfdq</text>
</g>
<!-- SoC_RISCV&#45;&gt;SoC_DV -->
<g id="edge28" class="edge">
<title>SoC_RISCV&#45;&gt;SoC_DV</title>
<path fill="none" stroke="black" d="M312.47,-264C329.17,-264 347.57,-264 364.82,-264"/>
<polygon fill="black" stroke="black" points="364.82,-267.5 374.82,-264 364.82,-260.5 364.82,-267.5"/>
</g>
<!-- PU_DV -->
<g id="node15" class="node">
<title>PU_DV</title>
<polygon fill="none" stroke="black" points="378,-309.5 378,-362.5 488,-362.5 488,-309.5 378,-309.5"/>
<text text-anchor="middle" x="433" y="-347.3" font-family="Times,serif" font-size="14.00">PU&#45;DV</text>
<text text-anchor="middle" x="433" y="-332.3" font-family="Times,serif" font-size="14.00">Environment</text>
<text text-anchor="middle" x="433" y="-317.3" font-family="Times,serif" font-size="14.00">rv64&#45;p&#45;gcfdq</text>
</g>
<!-- PU_RISCV&#45;&gt;PU_DV -->
<g id="edge27" class="edge">
<title>PU_RISCV&#45;&gt;PU_DV</title>
<path fill="none" stroke="black" d="M307.63,-336C326.46,-336 347.9,-336 367.61,-336"/>
<polygon fill="black" stroke="black" points="367.74,-339.5 377.74,-336 367.74,-332.5 367.74,-339.5"/>
</g>
<!-- MPSoC_DNC -->
<g id="node16" class="node">
<title>MPSoC_DNC</title>
<polygon fill="none" stroke="black" points="545,-165.5 545,-218.5 672,-218.5 672,-165.5 545,-165.5"/>
<text text-anchor="middle" x="608.5" y="-203.3" font-family="Times,serif" font-size="14.00">MPSoC&#45;DNC</text>
<text text-anchor="middle" x="608.5" y="-188.3" font-family="Times,serif" font-size="14.00">Accelerator</text>
<text text-anchor="middle" x="608.5" y="-173.3" font-family="Times,serif" font-size="14.00">rv64&#45;pvt&#45;gcvwy</text>
</g>
<!-- MPSoC_DV&#45;&gt;MPSoC_DNC -->
<g id="edge32" class="edge">
<title>MPSoC_DV&#45;&gt;MPSoC_DNC</title>
<path fill="none" stroke="black" d="M494.19,-192C507.22,-192 521.13,-192 534.58,-192"/>
<polygon fill="black" stroke="black" points="534.76,-195.5 544.76,-192 534.76,-188.5 534.76,-195.5"/>
</g>
<!-- SoC_DNC -->
<g id="node17" class="node">
<title>SoC_DNC</title>
<polygon fill="none" stroke="black" points="548,-237.5 548,-290.5 669,-290.5 669,-237.5 548,-237.5"/>
<text text-anchor="middle" x="608.5" y="-275.3" font-family="Times,serif" font-size="14.00">SoC&#45;DNC</text>
<text text-anchor="middle" x="608.5" y="-260.3" font-family="Times,serif" font-size="14.00">Accelerator</text>
<text text-anchor="middle" x="608.5" y="-245.3" font-family="Times,serif" font-size="14.00">rv64&#45;pv&#45;gcvwy</text>
</g>
<!-- SoC_DV&#45;&gt;SoC_DNC -->
<g id="edge31" class="edge">
<title>SoC_DV&#45;&gt;SoC_DNC</title>
<path fill="none" stroke="black" d="M491.29,-264C506.19,-264 522.4,-264 537.86,-264"/>
<polygon fill="black" stroke="black" points="537.89,-267.5 547.89,-264 537.89,-260.5 537.89,-267.5"/>
</g>
<!-- PU_DNC -->
<g id="node18" class="node">
<title>PU_DNC</title>
<polygon fill="none" stroke="black" points="552,-309.5 552,-362.5 665,-362.5 665,-309.5 552,-309.5"/>
<text text-anchor="middle" x="608.5" y="-347.3" font-family="Times,serif" font-size="14.00">PU&#45;DNC</text>
<text text-anchor="middle" x="608.5" y="-332.3" font-family="Times,serif" font-size="14.00">Accelerator</text>
<text text-anchor="middle" x="608.5" y="-317.3" font-family="Times,serif" font-size="14.00">rv64&#45;p&#45;gcvwy</text>
</g>
<!-- PU_DV&#45;&gt;PU_DNC -->
<g id="edge30" class="edge">
<title>PU_DV&#45;&gt;PU_DNC</title>
<path fill="none" stroke="black" d="M488.42,-336C505.28,-336 524.05,-336 541.61,-336"/>
<polygon fill="black" stroke="black" points="541.78,-339.5 551.78,-336 541.78,-332.5 541.78,-339.5"/>
</g>
<!-- MPSoC_EnergyTech -->
<g id="node19" class="node">
<title>MPSoC_EnergyTech</title>
<polygon fill="none" stroke="black" points="714,-131 714,-169 872,-169 872,-131 714,-131"/>
<text text-anchor="middle" x="793" y="-153.8" font-family="Times,serif" font-size="14.00">MPSoC&#45;EnergyTech</text>
<text text-anchor="middle" x="793" y="-138.8" font-family="Times,serif" font-size="14.00">Target</text>
</g>
<!-- MPSoC_DNC&#45;&gt;MPSoC_EnergyTech -->
<g id="edge35" class="edge">
<title>MPSoC_DNC&#45;&gt;MPSoC_EnergyTech</title>
<path fill="none" stroke="black" d="M672.05,-177.6C682.32,-175.24 693.13,-172.75 703.88,-170.28"/>
<polygon fill="black" stroke="black" points="704.76,-173.67 713.72,-168.01 703.19,-166.85 704.76,-173.67"/>
</g>
<!-- MPSoC_FinTech -->
<g id="node22" class="node">
<title>MPSoC_FinTech</title>
<polygon fill="none" stroke="black" points="728,-17 728,-55 858,-55 858,-17 728,-17"/>
<text text-anchor="middle" x="793" y="-39.8" font-family="Times,serif" font-size="14.00">MPSoC&#45;FinTech</text>
<text text-anchor="middle" x="793" y="-24.8" font-family="Times,serif" font-size="14.00">Target</text>
</g>
<!-- MPSoC_DNC&#45;&gt;MPSoC_FinTech -->
<g id="edge38" class="edge">
<title>MPSoC_DNC&#45;&gt;MPSoC_FinTech</title>
<path fill="none" stroke="black" d="M622.42,-165.27C637.76,-136.27 665.99,-90.55 703,-64 707.81,-60.55 713.05,-57.52 718.51,-54.85"/>
<polygon fill="black" stroke="black" points="720.15,-57.95 727.87,-50.7 717.31,-51.55 720.15,-57.95"/>
</g>
<!-- MPSoC_DefenseTech -->
<g id="node25" class="node">
<title>MPSoC_DefenseTech</title>
<polygon fill="none" stroke="black" points="711,-74 711,-112 875,-112 875,-74 711,-74"/>
<text text-anchor="middle" x="793" y="-96.8" font-family="Times,serif" font-size="14.00">MPSoC&#45;DefenseTech</text>
<text text-anchor="middle" x="793" y="-81.8" font-family="Times,serif" font-size="14.00">Target</text>
</g>
<!-- MPSoC_DNC&#45;&gt;MPSoC_DefenseTech -->
<g id="edge41" class="edge">
<title>MPSoC_DNC&#45;&gt;MPSoC_DefenseTech</title>
<path fill="none" stroke="black" d="M639.8,-165.29C657.32,-150.91 680.32,-133.77 703,-122 707.2,-119.82 711.59,-117.76 716.08,-115.83"/>
<polygon fill="black" stroke="black" points="717.46,-119.04 725.4,-112.02 714.82,-112.56 717.46,-119.04"/>
</g>
<!-- SoC_EnergyTech -->
<g id="node20" class="node">
<title>SoC_EnergyTech</title>
<polygon fill="none" stroke="black" points="726,-245 726,-283 860,-283 860,-245 726,-245"/>
<text text-anchor="middle" x="793" y="-267.8" font-family="Times,serif" font-size="14.00">SoC&#45;EnergyTech</text>
<text text-anchor="middle" x="793" y="-252.8" font-family="Times,serif" font-size="14.00">Target</text>
</g>
<!-- SoC_DNC&#45;&gt;SoC_EnergyTech -->
<g id="edge34" class="edge">
<title>SoC_DNC&#45;&gt;SoC_EnergyTech</title>
<path fill="none" stroke="black" d="M669,-264C683.94,-264 700.16,-264 715.79,-264"/>
<polygon fill="black" stroke="black" points="715.95,-267.5 725.95,-264 715.95,-260.5 715.95,-267.5"/>
</g>
<!-- SoC_FinTech -->
<g id="node23" class="node">
<title>SoC_FinTech</title>
<polygon fill="none" stroke="black" points="740,-188 740,-226 846,-226 846,-188 740,-188"/>
<text text-anchor="middle" x="793" y="-210.8" font-family="Times,serif" font-size="14.00">SoC&#45;FinTech</text>
<text text-anchor="middle" x="793" y="-195.8" font-family="Times,serif" font-size="14.00">Target</text>
</g>
<!-- SoC_DNC&#45;&gt;SoC_FinTech -->
<g id="edge37" class="edge">
<title>SoC_DNC&#45;&gt;SoC_FinTech</title>
<path fill="none" stroke="black" d="M669,-245.41C688.58,-239.3 710.38,-232.49 730.13,-226.32"/>
<polygon fill="black" stroke="black" points="731.44,-229.58 739.95,-223.26 729.36,-222.9 731.44,-229.58"/>
</g>
<!-- SoC_DefenseTech -->
<g id="node26" class="node">
<title>SoC_DefenseTech</title>
<polygon fill="none" stroke="black" points="723,-302 723,-340 863,-340 863,-302 723,-302"/>
<text text-anchor="middle" x="793" y="-324.8" font-family="Times,serif" font-size="14.00">SoC&#45;DefenseTech</text>
<text text-anchor="middle" x="793" y="-309.8" font-family="Times,serif" font-size="14.00">Target</text>
</g>
<!-- SoC_DNC&#45;&gt;SoC_DefenseTech -->
<g id="edge40" class="edge">
<title>SoC_DNC&#45;&gt;SoC_DefenseTech</title>
<path fill="none" stroke="black" d="M669,-282.59C685.61,-287.77 703.82,-293.46 721.02,-298.83"/>
<polygon fill="black" stroke="black" points="720.42,-302.31 731.01,-301.95 722.51,-295.63 720.42,-302.31"/>
</g>
<!-- PU_EnergyTech -->
<g id="node21" class="node">
<title>PU_EnergyTech</title>
<polygon fill="none" stroke="black" points="730,-473 730,-511 856,-511 856,-473 730,-473"/>
<text text-anchor="middle" x="793" y="-495.8" font-family="Times,serif" font-size="14.00">PU&#45;EnergyTech</text>
<text text-anchor="middle" x="793" y="-480.8" font-family="Times,serif" font-size="14.00">Target</text>
</g>
<!-- PU_DNC&#45;&gt;PU_EnergyTech -->
<g id="edge33" class="edge">
<title>PU_DNC&#45;&gt;PU_EnergyTech</title>
<path fill="none" stroke="black" d="M622.42,-362.73C637.76,-391.73 665.99,-437.45 703,-464 708.27,-467.78 714.07,-471.06 720.1,-473.91"/>
<polygon fill="black" stroke="black" points="719.16,-477.32 729.73,-478.04 721.91,-470.88 719.16,-477.32"/>
</g>
<!-- PU_FinTech -->
<g id="node24" class="node">
<title>PU_FinTech</title>
<polygon fill="none" stroke="black" points="744,-416 744,-454 842,-454 842,-416 744,-416"/>
<text text-anchor="middle" x="793" y="-438.8" font-family="Times,serif" font-size="14.00">PU&#45;FinTech</text>
<text text-anchor="middle" x="793" y="-423.8" font-family="Times,serif" font-size="14.00">Target</text>
</g>
<!-- PU_DNC&#45;&gt;PU_FinTech -->
<g id="edge36" class="edge">
<title>PU_DNC&#45;&gt;PU_FinTech</title>
<path fill="none" stroke="black" d="M638.87,-362.51C656.45,-377.27 679.82,-395.02 703,-407 712.69,-412.01 723.45,-416.33 734.04,-419.96"/>
<polygon fill="black" stroke="black" points="733.09,-423.33 743.68,-423.11 735.26,-416.68 733.09,-423.33"/>
</g>
<!-- PU_DefenseTech -->
<g id="node27" class="node">
<title>PU_DefenseTech</title>
<polygon fill="none" stroke="black" points="727,-359 727,-397 859,-397 859,-359 727,-359"/>
<text text-anchor="middle" x="793" y="-381.8" font-family="Times,serif" font-size="14.00">PU&#45;DefenseTech</text>
<text text-anchor="middle" x="793" y="-366.8" font-family="Times,serif" font-size="14.00">Target</text>
</g>
<!-- PU_DNC&#45;&gt;PU_DefenseTech -->
<g id="edge39" class="edge">
<title>PU_DNC&#45;&gt;PU_DefenseTech</title>
<path fill="none" stroke="black" d="M665.25,-348.83C681.55,-352.58 699.63,-356.74 716.92,-360.72"/>
<polygon fill="black" stroke="black" points="716.46,-364.21 726.99,-363.04 718.03,-357.39 716.46,-364.21"/>
</g>
</g>
</svg>
