<?xml version="1.0" encoding="UTF-8" standalone="no"?>
<!DOCTYPE svg PUBLIC "-//W3C//DTD SVG 1.1//EN"
 "http://www.w3.org/Graphics/SVG/1.1/DTD/svg11.dtd">
<!-- Generated by graphviz version 2.40.1 (20161225.0304)
 -->
<!-- Title: BackEnd Pages: 1 -->
<svg width="372pt" height="572pt"
 viewBox="0.00 0.00 372.00 572.00" xmlns="http://www.w3.org/2000/svg" xmlns:xlink="http://www.w3.org/1999/xlink">
<g id="graph0" class="graph" transform="scale(1 1) rotate(0) translate(4 568)">
<title>BackEnd</title>
<polygon fill="#ffffff" stroke="transparent" points="-4,4 -4,-568 368,-568 368,4 -4,4"/>
<!-- Planning_SLH -->
<g id="node1" class="node">
<title>Planning_SLH</title>
<polygon fill="none" stroke="#000000" points="148,-525.5 148,-563.5 364,-563.5 364,-525.5 148,-525.5"/>
<text text-anchor="middle" x="256" y="-548.3" font-family="Times,serif" font-size="14.00" fill="#000000">Planning Switch Level of Hardware </text>
<text text-anchor="middle" x="256" y="-533.3" font-family="Times,serif" font-size="14.00" fill="#000000">(magic)</text>
</g>
<!-- Placing_SLH -->
<g id="node2" class="node">
<title>Placing_SLH</title>
<polygon fill="none" stroke="#000000" points="18.5,-450.5 18.5,-488.5 227.5,-488.5 227.5,-450.5 18.5,-450.5"/>
<text text-anchor="middle" x="123" y="-473.3" font-family="Times,serif" font-size="14.00" fill="#000000">Placing Switch Level of Hardware </text>
<text text-anchor="middle" x="123" y="-458.3" font-family="Times,serif" font-size="14.00" fill="#000000">(graywolf)</text>
</g>
<!-- Planning_SLH&#45;&gt;Placing_SLH -->
<g id="edge1" class="edge">
<title>Planning_SLH&#45;&gt;Placing_SLH</title>
<path fill="none" stroke="#000000" d="M222.0944,-525.3803C204.8981,-515.6832 183.8387,-503.8075 165.5628,-493.5016"/>
<polygon fill="#000000" stroke="#000000" points="167.2734,-490.4481 156.8437,-488.5848 163.8351,-496.5455 167.2734,-490.4481"/>
</g>
<!-- Timing_SLH -->
<g id="node3" class="node">
<title>Timing_SLH</title>
<polygon fill="none" stroke="#000000" points="18.5,-375.5 18.5,-413.5 227.5,-413.5 227.5,-375.5 18.5,-375.5"/>
<text text-anchor="middle" x="123" y="-398.3" font-family="Times,serif" font-size="14.00" fill="#000000">Timing Switch Level of Hardware </text>
<text text-anchor="middle" x="123" y="-383.3" font-family="Times,serif" font-size="14.00" fill="#000000">(sta)</text>
</g>
<!-- Placing_SLH&#45;&gt;Timing_SLH -->
<g id="edge2" class="edge">
<title>Placing_SLH&#45;&gt;Timing_SLH</title>
<path fill="none" stroke="#000000" d="M123,-450.1856C123,-442.2247 123,-432.821 123,-424.03"/>
<polygon fill="#000000" stroke="#000000" points="126.5001,-423.7489 123,-413.7489 119.5001,-423.7489 126.5001,-423.7489"/>
</g>
<!-- Routing_SLH -->
<g id="node4" class="node">
<title>Routing_SLH</title>
<polygon fill="none" stroke="#000000" points="12,-300.5 12,-338.5 224,-338.5 224,-300.5 12,-300.5"/>
<text text-anchor="middle" x="118" y="-323.3" font-family="Times,serif" font-size="14.00" fill="#000000">Routing Switch Level of Hardware </text>
<text text-anchor="middle" x="118" y="-308.3" font-family="Times,serif" font-size="14.00" fill="#000000">(qrouter)</text>
</g>
<!-- Timing_SLH&#45;&gt;Routing_SLH -->
<g id="edge3" class="edge">
<title>Timing_SLH&#45;&gt;Routing_SLH</title>
<path fill="none" stroke="#000000" d="M121.7124,-375.1856C121.1758,-367.1372 120.5409,-357.6142 119.9494,-348.7404"/>
<polygon fill="#000000" stroke="#000000" points="123.4408,-348.4939 119.2833,-338.7489 116.4563,-348.9596 123.4408,-348.4939"/>
</g>
<!-- Simulating_SLH -->
<g id="node5" class="node">
<title>Simulating_SLH</title>
<polygon fill="none" stroke="#000000" points="0,-225.5 0,-263.5 228,-263.5 228,-225.5 0,-225.5"/>
<text text-anchor="middle" x="114" y="-248.3" font-family="Times,serif" font-size="14.00" fill="#000000">Simulating Switch Level of Hardware </text>
<text text-anchor="middle" x="114" y="-233.3" font-family="Times,serif" font-size="14.00" fill="#000000">(irsim)</text>
</g>
<!-- Routing_SLH&#45;&gt;Simulating_SLH -->
<g id="edge4" class="edge">
<title>Routing_SLH&#45;&gt;Simulating_SLH</title>
<path fill="none" stroke="#000000" d="M116.9699,-300.1856C116.5407,-292.1372 116.0328,-282.6142 115.5595,-273.7404"/>
<polygon fill="#000000" stroke="#000000" points="119.0543,-273.5483 115.0266,-263.7489 112.0642,-273.9212 119.0543,-273.5483"/>
</g>
<!-- Verifying_LVS -->
<g id="node6" class="node">
<title>Verifying_LVS</title>
<polygon fill="none" stroke="#000000" points="16,-150.5 16,-188.5 266,-188.5 266,-150.5 16,-150.5"/>
<text text-anchor="middle" x="141" y="-173.3" font-family="Times,serif" font-size="14.00" fill="#000000">Verifying Switch Level of Hardware LVS </text>
<text text-anchor="middle" x="141" y="-158.3" font-family="Times,serif" font-size="14.00" fill="#000000">(netgen)</text>
</g>
<!-- Simulating_SLH&#45;&gt;Verifying_LVS -->
<g id="edge5" class="edge">
<title>Simulating_SLH&#45;&gt;Verifying_LVS</title>
<path fill="none" stroke="#000000" d="M120.9532,-225.1856C123.9136,-216.9623 127.4282,-207.1994 130.6815,-198.1626"/>
<polygon fill="#000000" stroke="#000000" points="133.9762,-199.3433 134.0704,-188.7489 127.39,-196.9723 133.9762,-199.3433"/>
</g>
<!-- Verifying_LVS&#45;&gt;Planning_SLH -->
<g id="edge8" class="edge">
<title>Verifying_LVS&#45;&gt;Planning_SLH</title>
<path fill="none" stroke="#000000" d="M191.4936,-188.5273C208.3282,-197.2325 225.6626,-209.2034 237,-225 261.9794,-259.8043 256,-276.6595 256,-319.5 256,-394.5 256,-394.5 256,-394.5 256,-436.248 256,-484.532 256,-514.7944"/>
<polygon fill="#000000" stroke="#000000" points="252.5001,-515.0828 256,-525.0828 259.5001,-515.0828 252.5001,-515.0828"/>
</g>
<!-- Checking_DRC -->
<g id="node7" class="node">
<title>Checking_DRC</title>
<polygon fill="none" stroke="#000000" points="91.5,-75.5 91.5,-113.5 342.5,-113.5 342.5,-75.5 91.5,-75.5"/>
<text text-anchor="middle" x="217" y="-98.3" font-family="Times,serif" font-size="14.00" fill="#000000">Checking Switch Level of Hardware DRC </text>
<text text-anchor="middle" x="217" y="-83.3" font-family="Times,serif" font-size="14.00" fill="#000000">(magic)</text>
</g>
<!-- Verifying_LVS&#45;&gt;Checking_DRC -->
<g id="edge6" class="edge">
<title>Verifying_LVS&#45;&gt;Checking_DRC</title>
<path fill="none" stroke="#000000" d="M160.5719,-150.1856C169.6141,-141.2624 180.4931,-130.5265 190.2758,-120.8725"/>
<polygon fill="#000000" stroke="#000000" points="192.8351,-123.2642 197.4944,-113.7489 187.9182,-118.2818 192.8351,-123.2642"/>
</g>
<!-- Checking_DRC&#45;&gt;Planning_SLH -->
<g id="edge9" class="edge">
<title>Checking_DRC&#45;&gt;Planning_SLH</title>
<path fill="none" stroke="#000000" d="M243.3725,-113.6829C254.7863,-123.3312 267.2751,-135.9572 275,-150 295.6484,-187.536 294,-201.6595 294,-244.5 294,-394.5 294,-394.5 294,-394.5 294,-437.9446 278.8356,-486.3595 267.666,-516.1279"/>
<polygon fill="#000000" stroke="#000000" points="264.3942,-514.8848 264.0588,-525.4743 270.9247,-517.4052 264.3942,-514.8848"/>
</g>
<!-- Printing_GDS -->
<g id="node8" class="node">
<title>Printing_GDS</title>
<polygon fill="none" stroke="#000000" points="96,-.5 96,-38.5 338,-38.5 338,-.5 96,-.5"/>
<text text-anchor="middle" x="217" y="-23.3" font-family="Times,serif" font-size="14.00" fill="#000000">Printing Switch Level of Hardware GDS </text>
<text text-anchor="middle" x="217" y="-8.3" font-family="Times,serif" font-size="14.00" fill="#000000">(magic)</text>
</g>
<!-- Checking_DRC&#45;&gt;Printing_GDS -->
<g id="edge7" class="edge">
<title>Checking_DRC&#45;&gt;Printing_GDS</title>
<path fill="none" stroke="#000000" d="M217,-75.1856C217,-67.2247 217,-57.821 217,-49.03"/>
<polygon fill="#000000" stroke="#000000" points="220.5001,-48.7489 217,-38.7489 213.5001,-48.7489 220.5001,-48.7489"/>
</g>
</g>
</svg>
