<?xml version="1.0" encoding="UTF-8" standalone="no"?>
<!DOCTYPE svg PUBLIC "-//W3C//DTD SVG 1.1//EN"
 "http://www.w3.org/Graphics/SVG/1.1/DTD/svg11.dtd">
<!-- Generated by graphviz version 2.40.1 (20161225.0304)
 -->
<!-- Title: Project Pages: 1 -->
<svg width="1485pt" height="109pt"
 viewBox="0.00 0.00 1485.00 109.00" xmlns="http://www.w3.org/2000/svg" xmlns:xlink="http://www.w3.org/1999/xlink">
<g id="graph0" class="graph" transform="scale(1 1) rotate(0) translate(4 105)">
<title>Project</title>
<polygon fill="#ffffff" stroke="transparent" points="-4,4 -4,-105 1481,-105 1481,4 -4,4"/>
<!-- Requirements -->
<g id="node1" class="node">
<title>Requirements</title>
<polygon fill="none" stroke="#000000" points="0,-14.5 0,-52.5 96,-52.5 96,-14.5 0,-14.5"/>
<text text-anchor="middle" x="48" y="-37.3" font-family="Times,serif" font-size="14.00" fill="#000000">Requirements </text>
<text text-anchor="middle" x="48" y="-22.3" font-family="Times,serif" font-size="14.00" fill="#000000">(UML) [Dot]</text>
</g>
<!-- Source -->
<g id="node2" class="node">
<title>Source</title>
<polygon fill="none" stroke="#000000" points="132,-62.5 132,-100.5 249,-100.5 249,-62.5 132,-62.5"/>
<text text-anchor="middle" x="190.5" y="-85.3" font-family="Times,serif" font-size="14.00" fill="#000000">Source </text>
<text text-anchor="middle" x="190.5" y="-70.3" font-family="Times,serif" font-size="14.00" fill="#000000">(ADA/C) [Emacs]</text>
</g>
<!-- Requirements&#45;&gt;Source -->
<g id="edge1" class="edge">
<title>Requirements&#45;&gt;Source</title>
<path fill="none" stroke="#000000" d="M48,-52.7469C48,-66.1008 48,-81.5 48,-81.5 48,-81.5 121.7171,-81.5 121.7171,-81.5"/>
<polygon fill="#000000" stroke="#000000" points="121.7171,-85.0001 131.7171,-81.5 121.717,-78.0001 121.7171,-85.0001"/>
</g>
<!-- Model -->
<g id="node3" class="node">
<title>Model</title>
<polygon fill="none" stroke="#000000" points="285,-62.5 285,-100.5 443,-100.5 443,-62.5 285,-62.5"/>
<text text-anchor="middle" x="364" y="-85.3" font-family="Times,serif" font-size="14.00" fill="#000000">Model </text>
<text text-anchor="middle" x="364" y="-70.3" font-family="Times,serif" font-size="14.00" fill="#000000">(VHDL/Verilog) [Emacs]</text>
</g>
<!-- Source&#45;&gt;Model -->
<g id="edge2" class="edge">
<title>Source&#45;&gt;Model</title>
<path fill="none" stroke="#000000" d="M249.2392,-81.5C249.2392,-81.5 274.7075,-81.5 274.7075,-81.5"/>
<polygon fill="#000000" stroke="#000000" points="274.7075,-85.0001 284.7075,-81.5 274.7074,-78.0001 274.7075,-85.0001"/>
</g>
<!-- Validation -->
<g id="node4" class="node">
<title>Validation</title>
<polygon fill="none" stroke="#000000" points="479,-24.5 479,-62.5 727,-62.5 727,-24.5 479,-24.5"/>
<text text-anchor="middle" x="603" y="-47.3" font-family="Times,serif" font-size="14.00" fill="#000000">Validation </text>
<text text-anchor="middle" x="603" y="-32.3" font-family="Times,serif" font-size="14.00" fill="#000000">(VHDL/Verilog) [GHDL / Icarus Verilog]</text>
</g>
<!-- Model&#45;&gt;Validation -->
<g id="edge3" class="edge">
<title>Model&#45;&gt;Validation</title>
<path fill="none" stroke="#000000" d="M364,-62.1274C364,-59.3984 364,-57.5 364,-57.5 364,-57.5 468.9497,-57.5 468.9497,-57.5"/>
<polygon fill="#000000" stroke="#000000" points="468.9497,-61.0001 478.9497,-57.5 468.9497,-54.0001 468.9497,-61.0001"/>
</g>
<!-- Validation&#45;&gt;Requirements -->
<g id="edge8" class="edge">
<title>Validation&#45;&gt;Requirements</title>
<path fill="none" stroke="#000000" d="M478.7927,-38.5C478.7927,-38.5 106.2581,-38.5 106.2581,-38.5"/>
<polygon fill="#000000" stroke="#000000" points="106.2582,-35.0001 96.2581,-38.5 106.2581,-42.0001 106.2582,-35.0001"/>
</g>
<!-- Design -->
<g id="node5" class="node">
<title>Design</title>
<polygon fill="none" stroke="#000000" points="763,-24.5 763,-62.5 921,-62.5 921,-24.5 763,-24.5"/>
<text text-anchor="middle" x="842" y="-47.3" font-family="Times,serif" font-size="14.00" fill="#000000">Design </text>
<text text-anchor="middle" x="842" y="-32.3" font-family="Times,serif" font-size="14.00" fill="#000000">(VHDL/Verilog) [Emacs]</text>
</g>
<!-- Validation&#45;&gt;Design -->
<g id="edge4" class="edge">
<title>Validation&#45;&gt;Design</title>
<path fill="none" stroke="#000000" d="M727.0503,-43.5C727.0503,-43.5 752.8424,-43.5 752.8424,-43.5"/>
<polygon fill="#000000" stroke="#000000" points="752.8424,-47.0001 762.8424,-43.5 752.8424,-40.0001 752.8424,-47.0001"/>
</g>
<!-- Verification -->
<g id="node6" class="node">
<title>Verification</title>
<polygon fill="none" stroke="#000000" points="957,-.5 957,-38.5 1205,-38.5 1205,-.5 957,-.5"/>
<text text-anchor="middle" x="1081" y="-23.3" font-family="Times,serif" font-size="14.00" fill="#000000">Verification </text>
<text text-anchor="middle" x="1081" y="-8.3" font-family="Times,serif" font-size="14.00" fill="#000000">(VHDL/Verilog) [GHDL / Icarus Verilog]</text>
</g>
<!-- Design&#45;&gt;Verification -->
<g id="edge5" class="edge">
<title>Design&#45;&gt;Verification</title>
<path fill="none" stroke="#000000" d="M921.2516,-31.5C921.2516,-31.5 946.6682,-31.5 946.6682,-31.5"/>
<polygon fill="#000000" stroke="#000000" points="946.6682,-35.0001 956.6682,-31.5 946.6681,-28.0001 946.6682,-35.0001"/>
</g>
<!-- Verification&#45;&gt;Requirements -->
<g id="edge9" class="edge">
<title>Verification&#45;&gt;Requirements</title>
<path fill="none" stroke="#000000" d="M956.9095,-19C956.9095,-19 106.1765,-19 106.1765,-19"/>
<polygon fill="#000000" stroke="#000000" points="106.1765,-15.5001 96.1765,-19 106.1765,-22.5001 106.1765,-15.5001"/>
</g>
<!-- Certification -->
<g id="node7" class="node">
<title>Certification</title>
<polygon fill="none" stroke="#000000" points="1241,-.5 1241,-38.5 1337,-38.5 1337,-.5 1241,-.5"/>
<text text-anchor="middle" x="1289" y="-23.3" font-family="Times,serif" font-size="14.00" fill="#000000">Certification </text>
<text text-anchor="middle" x="1289" y="-8.3" font-family="Times,serif" font-size="14.00" fill="#000000">(Tex) [Emacs]</text>
</g>
<!-- Verification&#45;&gt;Certification -->
<g id="edge6" class="edge">
<title>Verification&#45;&gt;Certification</title>
<path fill="none" stroke="#000000" d="M1205.2975,-19.5C1205.2975,-19.5 1230.7987,-19.5 1230.7987,-19.5"/>
<polygon fill="#000000" stroke="#000000" points="1230.7988,-23.0001 1240.7987,-19.5 1230.7987,-16.0001 1230.7988,-23.0001"/>
</g>
<!-- Documentation -->
<g id="node8" class="node">
<title>Documentation</title>
<polygon fill="none" stroke="#000000" points="1373,-.5 1373,-38.5 1477,-38.5 1477,-.5 1373,-.5"/>
<text text-anchor="middle" x="1425" y="-23.3" font-family="Times,serif" font-size="14.00" fill="#000000">Documentation </text>
<text text-anchor="middle" x="1425" y="-8.3" font-family="Times,serif" font-size="14.00" fill="#000000">(Tex) [Emacs]</text>
</g>
<!-- Certification&#45;&gt;Documentation -->
<g id="edge7" class="edge">
<title>Certification&#45;&gt;Documentation</title>
<path fill="none" stroke="#000000" d="M1337.3314,-19.5C1337.3314,-19.5 1362.6711,-19.5 1362.6711,-19.5"/>
<polygon fill="#000000" stroke="#000000" points="1362.6711,-23.0001 1372.6711,-19.5 1362.6711,-16.0001 1362.6711,-23.0001"/>
</g>
</g>
</svg>
