<?xml version="1.0" encoding="UTF-8" standalone="no"?>
<!DOCTYPE svg PUBLIC "-//W3C//DTD SVG 1.1//EN"
 "http://www.w3.org/Graphics/SVG/1.1/DTD/svg11.dtd">
<!-- Generated by graphviz version 2.43.0 (0)
 -->
<!-- Title: Project Pages: 1 -->
<svg width="899pt" height="559pt"
 viewBox="0.00 0.00 899.00 559.00" xmlns="http://www.w3.org/2000/svg" xmlns:xlink="http://www.w3.org/1999/xlink">
<g id="graph0" class="graph" transform="scale(1 1) rotate(0) translate(4 555)">
<title>Project</title>
<polygon fill="white" stroke="transparent" points="-4,4 -4,-555 895,-555 895,4 -4,4"/>
<g id="clust1" class="cluster">
<title>cluster PeripheralBlocks</title>
<polygon fill="none" stroke="black" points="8,-8 8,-543 156,-543 156,-8 8,-8"/>
<text text-anchor="middle" x="82" y="-527.8" font-family="Times,serif" font-size="14.00">Peripheral Blocks</text>
</g>
<g id="clust2" class="cluster">
<title>cluster ArchitectureBlocks</title>
<polygon fill="none" stroke="black" points="176,-157 176,-394 333,-394 333,-157 176,-157"/>
<text text-anchor="middle" x="254.5" y="-378.8" font-family="Times,serif" font-size="14.00">Architecture Blocks</text>
</g>
<g id="clust3" class="cluster">
<title>cluster EnvironmentBlocks</title>
<polygon fill="none" stroke="black" points="353,-157 353,-394 514,-394 514,-157 353,-157"/>
<text text-anchor="middle" x="433.5" y="-378.8" font-family="Times,serif" font-size="14.00">Environment Blocks</text>
</g>
<g id="clust4" class="cluster">
<title>cluster AcceleratorBlocks</title>
<polygon fill="none" stroke="black" points="534,-157 534,-394 683,-394 683,-157 534,-157"/>
<text text-anchor="middle" x="608.5" y="-378.8" font-family="Times,serif" font-size="14.00">Accelerator Blocks</text>
</g>
<g id="clust5" class="cluster">
<title>cluster TargetBlocks</title>
<polygon fill="none" stroke="black" points="703,-8 703,-543 883,-543 883,-8 703,-8"/>
<text text-anchor="middle" x="793" y="-527.8" font-family="Times,serif" font-size="14.00">Target Blocks</text>
</g>
<!-- MPSoC_DBG -->
<g id="node1" class="node">
<title>MPSoC_DBG</title>
<polygon fill="none" stroke="black" points="28.5,-131 28.5,-169 135.5,-169 135.5,-131 28.5,-131"/>
<text text-anchor="middle" x="82" y="-153.8" font-family="Times,serif" font-size="14.00">MPSoC&#45;DBG</text>
<text text-anchor="middle" x="82" y="-138.8" font-family="Times,serif" font-size="14.00">Peripheral</text>
</g>
<!-- MPSoC_OR1K -->
<g id="node10" class="node">
<title>MPSoC_OR1K</title>
<polygon fill="none" stroke="black" points="197,-165.5 197,-218.5 312,-218.5 312,-165.5 197,-165.5"/>
<text text-anchor="middle" x="254.5" y="-203.3" font-family="Times,serif" font-size="14.00">MPSoC&#45;OR1K</text>
<text text-anchor="middle" x="254.5" y="-188.3" font-family="Times,serif" font-size="14.00">Architecture</text>
<text text-anchor="middle" x="254.5" y="-173.3" font-family="Times,serif" font-size="14.00">or1k64&#45;pvt</text>
</g>
<!-- MPSoC_DBG&#45;&gt;MPSoC_OR1K -->
<g id="edge1" class="edge">
<title>MPSoC_DBG&#45;&gt;MPSoC_OR1K</title>
<path fill="none" stroke="black" d="M135.55,-162.94C151.82,-166.95 169.98,-171.42 187.06,-175.63"/>
<polygon fill="black" stroke="black" points="186.44,-179.08 196.98,-178.08 188.11,-172.29 186.44,-179.08"/>
</g>
<!-- SoC_OR1K -->
<g id="node11" class="node">
<title>SoC_OR1K</title>
<polygon fill="none" stroke="black" points="201.5,-237.5 201.5,-290.5 307.5,-290.5 307.5,-237.5 201.5,-237.5"/>
<text text-anchor="middle" x="254.5" y="-275.3" font-family="Times,serif" font-size="14.00">SoC&#45;OR1K</text>
<text text-anchor="middle" x="254.5" y="-260.3" font-family="Times,serif" font-size="14.00">Architecture</text>
<text text-anchor="middle" x="254.5" y="-245.3" font-family="Times,serif" font-size="14.00">or1k64&#45;pv</text>
</g>
<!-- MPSoC_DBG&#45;&gt;SoC_OR1K -->
<g id="edge10" class="edge">
<title>MPSoC_DBG&#45;&gt;SoC_OR1K</title>
<path fill="none" stroke="black" d="M135.63,-164.84C143.09,-168.59 150.19,-173.24 156,-179 172.71,-195.55 159.77,-210.98 176,-228 180.75,-232.98 186.32,-237.33 192.25,-241.13"/>
<polygon fill="black" stroke="black" points="190.76,-244.31 201.16,-246.29 194.27,-238.25 190.76,-244.31"/>
</g>
<!-- PU_OR1K -->
<g id="node12" class="node">
<title>PU_OR1K</title>
<polygon fill="none" stroke="black" points="201.5,-309.5 201.5,-362.5 307.5,-362.5 307.5,-309.5 201.5,-309.5"/>
<text text-anchor="middle" x="254.5" y="-347.3" font-family="Times,serif" font-size="14.00">PU&#45;OR1K</text>
<text text-anchor="middle" x="254.5" y="-332.3" font-family="Times,serif" font-size="14.00">Architecture</text>
<text text-anchor="middle" x="254.5" y="-317.3" font-family="Times,serif" font-size="14.00">or1k64&#45;p</text>
</g>
<!-- MPSoC_DBG&#45;&gt;PU_OR1K -->
<g id="edge19" class="edge">
<title>MPSoC_DBG&#45;&gt;PU_OR1K</title>
<path fill="none" stroke="black" d="M135.72,-163.19C143.45,-167.16 150.61,-172.31 156,-179 190.2,-221.44 143.02,-256.6 176,-300 180.51,-305.93 186.22,-310.92 192.5,-315.1"/>
<polygon fill="black" stroke="black" points="190.97,-318.26 201.36,-320.33 194.53,-312.23 190.97,-318.26"/>
</g>
<!-- MPSoC_DMA -->
<g id="node2" class="node">
<title>MPSoC_DMA</title>
<polygon fill="none" stroke="black" points="27.5,-74 27.5,-112 136.5,-112 136.5,-74 27.5,-74"/>
<text text-anchor="middle" x="82" y="-96.8" font-family="Times,serif" font-size="14.00">MPSoC&#45;DMA</text>
<text text-anchor="middle" x="82" y="-81.8" font-family="Times,serif" font-size="14.00">Peripheral</text>
</g>
<!-- MPSoC_DMA&#45;&gt;MPSoC_OR1K -->
<g id="edge2" class="edge">
<title>MPSoC_DMA&#45;&gt;MPSoC_OR1K</title>
<path fill="none" stroke="black" d="M135.56,-112.07C142.56,-115.13 149.54,-118.47 156,-122 175.48,-132.65 195.64,-146.57 212.53,-159.18"/>
<polygon fill="black" stroke="black" points="210.46,-162 220.55,-165.25 214.69,-156.42 210.46,-162"/>
</g>
<!-- MPSoC_DMA&#45;&gt;SoC_OR1K -->
<g id="edge11" class="edge">
<title>MPSoC_DMA&#45;&gt;SoC_OR1K</title>
<path fill="none" stroke="black" d="M136.7,-106.87C144.02,-110.74 150.79,-115.69 156,-122 186.5,-158.99 146.56,-190.16 176,-228 180.51,-233.8 186.17,-238.7 192.37,-242.83"/>
<polygon fill="black" stroke="black" points="190.72,-245.92 201.11,-248.01 194.29,-239.9 190.72,-245.92"/>
</g>
<!-- MPSoC_DMA&#45;&gt;PU_OR1K -->
<g id="edge20" class="edge">
<title>MPSoC_DMA&#45;&gt;PU_OR1K</title>
<path fill="none" stroke="black" d="M136.75,-106.34C144.16,-110.28 150.95,-115.39 156,-122 204.32,-185.27 129.49,-235.39 176,-300 180.41,-306.13 186.13,-311.24 192.46,-315.5"/>
<polygon fill="black" stroke="black" points="191.02,-318.71 201.41,-320.8 194.59,-312.69 191.02,-318.71"/>
</g>
<!-- MPSoC_GPIO -->
<g id="node3" class="node">
<title>MPSoC_GPIO</title>
<polygon fill="none" stroke="black" points="26.5,-473 26.5,-511 137.5,-511 137.5,-473 26.5,-473"/>
<text text-anchor="middle" x="82" y="-495.8" font-family="Times,serif" font-size="14.00">MPSoC&#45;GPIO</text>
<text text-anchor="middle" x="82" y="-480.8" font-family="Times,serif" font-size="14.00">Peripheral</text>
</g>
<!-- MPSoC_GPIO&#45;&gt;MPSoC_OR1K -->
<g id="edge3" class="edge">
<title>MPSoC_GPIO&#45;&gt;MPSoC_OR1K</title>
<path fill="none" stroke="black" d="M137.61,-479.15C144.72,-475.34 151.19,-470.4 156,-464 187.62,-421.93 145.84,-271.13 176,-228 179.43,-223.09 183.71,-218.84 188.48,-215.15"/>
<polygon fill="black" stroke="black" points="190.57,-217.96 196.9,-209.47 186.65,-212.16 190.57,-217.96"/>
</g>
<!-- MPSoC_GPIO&#45;&gt;SoC_OR1K -->
<g id="edge12" class="edge">
<title>MPSoC_GPIO&#45;&gt;SoC_OR1K</title>
<path fill="none" stroke="black" d="M137.76,-478.8C144.76,-475.04 151.15,-470.21 156,-464 201.19,-406.12 132.82,-359.39 176,-300 180.44,-293.9 186.17,-288.8 192.51,-284.54"/>
<polygon fill="black" stroke="black" points="194.64,-287.35 201.47,-279.25 191.08,-281.32 194.64,-287.35"/>
</g>
<!-- MPSoC_GPIO&#45;&gt;PU_OR1K -->
<g id="edge21" class="edge">
<title>MPSoC_GPIO&#45;&gt;PU_OR1K</title>
<path fill="none" stroke="black" d="M137.81,-474.88C144.23,-471.76 150.46,-468.15 156,-464 189.28,-439.06 216.83,-399.83 234.06,-371.38"/>
<polygon fill="black" stroke="black" points="237.2,-372.93 239.28,-362.55 231.18,-369.37 237.2,-372.93"/>
</g>
<!-- MPSoC_MPI -->
<g id="node4" class="node">
<title>MPSoC_MPI</title>
<polygon fill="none" stroke="black" points="30.5,-416 30.5,-454 133.5,-454 133.5,-416 30.5,-416"/>
<text text-anchor="middle" x="82" y="-438.8" font-family="Times,serif" font-size="14.00">MPSoC&#45;MPI</text>
<text text-anchor="middle" x="82" y="-423.8" font-family="Times,serif" font-size="14.00">Peripheral</text>
</g>
<!-- MPSoC_MPI&#45;&gt;MPSoC_OR1K -->
<g id="edge4" class="edge">
<title>MPSoC_MPI&#45;&gt;MPSoC_OR1K</title>
<path fill="none" stroke="black" d="M133.78,-423.87C142.33,-419.86 150.27,-414.41 156,-407 204.95,-343.66 129.25,-292.98 176,-228 179.44,-223.22 183.68,-219.05 188.39,-215.43"/>
<polygon fill="black" stroke="black" points="190.36,-218.32 196.69,-209.82 186.44,-212.52 190.36,-218.32"/>
</g>
<!-- MPSoC_MPI&#45;&gt;SoC_OR1K -->
<g id="edge13" class="edge">
<title>MPSoC_MPI&#45;&gt;SoC_OR1K</title>
<path fill="none" stroke="black" d="M133.72,-423.35C142.17,-419.39 150.09,-414.09 156,-407 186.97,-369.83 146.32,-338.21 176,-300 180.57,-294.12 186.32,-289.16 192.62,-284.99"/>
<polygon fill="black" stroke="black" points="194.65,-287.86 201.5,-279.78 191.1,-281.82 194.65,-287.86"/>
</g>
<!-- MPSoC_MPI&#45;&gt;PU_OR1K -->
<g id="edge22" class="edge">
<title>MPSoC_MPI&#45;&gt;PU_OR1K</title>
<path fill="none" stroke="black" d="M133.65,-417.57C141.29,-414.37 148.96,-410.82 156,-407 175.92,-396.17 196.43,-381.8 213.47,-368.82"/>
<polygon fill="black" stroke="black" points="215.77,-371.47 221.54,-362.59 211.49,-365.93 215.77,-371.47"/>
</g>
<!-- MPSoC_MPRAM -->
<g id="node5" class="node">
<title>MPSoC_MPRAM</title>
<polygon fill="none" stroke="black" points="16,-359 16,-397 148,-397 148,-359 16,-359"/>
<text text-anchor="middle" x="82" y="-381.8" font-family="Times,serif" font-size="14.00">MPSoC&#45;MPRAM</text>
<text text-anchor="middle" x="82" y="-366.8" font-family="Times,serif" font-size="14.00">Peripheral</text>
</g>
<!-- MPSoC_MPRAM&#45;&gt;MPSoC_OR1K -->
<g id="edge5" class="edge">
<title>MPSoC_MPRAM&#45;&gt;MPSoC_OR1K</title>
<path fill="none" stroke="black" d="M146.56,-358.94C150.06,-356.33 153.26,-353.37 156,-350 190.7,-307.4 142.78,-271.77 176,-228 179.42,-223.49 183.54,-219.53 188.08,-216.05"/>
<polygon fill="black" stroke="black" points="190.29,-218.78 196.63,-210.29 186.38,-212.98 190.29,-218.78"/>
</g>
<!-- MPSoC_MPRAM&#45;&gt;SoC_OR1K -->
<g id="edge14" class="edge">
<title>MPSoC_MPRAM&#45;&gt;SoC_OR1K</title>
<path fill="none" stroke="black" d="M144.72,-358.88C148.79,-356.28 152.62,-353.34 156,-350 173.04,-333.2 159.54,-317.38 176,-300 180.73,-295.01 186.29,-290.64 192.22,-286.84"/>
<polygon fill="black" stroke="black" points="194.23,-289.72 201.12,-281.67 190.72,-283.66 194.23,-289.72"/>
</g>
<!-- MPSoC_MPRAM&#45;&gt;PU_OR1K -->
<g id="edge23" class="edge">
<title>MPSoC_MPRAM&#45;&gt;PU_OR1K</title>
<path fill="none" stroke="black" d="M148.43,-361.88C162.56,-358.4 177.46,-354.73 191.46,-351.28"/>
<polygon fill="black" stroke="black" points="192.6,-354.61 201.47,-348.82 190.92,-347.81 192.6,-354.61"/>
</g>
<!-- MPSoC_MSI -->
<g id="node6" class="node">
<title>MPSoC_MSI</title>
<polygon fill="none" stroke="black" points="30.5,-302 30.5,-340 133.5,-340 133.5,-302 30.5,-302"/>
<text text-anchor="middle" x="82" y="-324.8" font-family="Times,serif" font-size="14.00">MPSoC&#45;MSI</text>
<text text-anchor="middle" x="82" y="-309.8" font-family="Times,serif" font-size="14.00">Peripheral</text>
</g>
<!-- MPSoC_MSI&#45;&gt;MPSoC_OR1K -->
<g id="edge6" class="edge">
<title>MPSoC_MSI&#45;&gt;MPSoC_OR1K</title>
<path fill="none" stroke="black" d="M133.84,-308.44C142.07,-304.58 149.88,-299.55 156,-293 176.64,-270.92 156.13,-250.78 176,-228 179.6,-223.88 183.76,-220.2 188.26,-216.91"/>
<polygon fill="black" stroke="black" points="190.21,-219.82 196.67,-211.43 186.39,-213.96 190.21,-219.82"/>
</g>
<!-- MPSoC_MSI&#45;&gt;SoC_OR1K -->
<g id="edge15" class="edge">
<title>MPSoC_MSI&#45;&gt;SoC_OR1K</title>
<path fill="none" stroke="black" d="M133.69,-304.05C151.92,-297.96 172.67,-291.02 191.73,-284.65"/>
<polygon fill="black" stroke="black" points="192.85,-287.97 201.23,-281.47 190.63,-281.33 192.85,-287.97"/>
</g>
<!-- MPSoC_MSI&#45;&gt;PU_OR1K -->
<g id="edge24" class="edge">
<title>MPSoC_MSI&#45;&gt;PU_OR1K</title>
<path fill="none" stroke="black" d="M133.69,-325.46C151.75,-327.05 172.3,-328.86 191.21,-330.52"/>
<polygon fill="black" stroke="black" points="190.96,-334.01 201.23,-331.4 191.57,-327.04 190.96,-334.01"/>
</g>
<!-- MPSoC_NoC -->
<g id="node7" class="node">
<title>MPSoC_NoC</title>
<polygon fill="none" stroke="black" points="30,-17 30,-55 134,-55 134,-17 30,-17"/>
<text text-anchor="middle" x="82" y="-39.8" font-family="Times,serif" font-size="14.00">MPSoC&#45;NoC</text>
<text text-anchor="middle" x="82" y="-24.8" font-family="Times,serif" font-size="14.00">Peripheral</text>
</g>
<!-- MPSoC_NoC&#45;&gt;MPSoC_OR1K -->
<g id="edge7" class="edge">
<title>MPSoC_NoC&#45;&gt;MPSoC_OR1K</title>
<path fill="none" stroke="black" d="M134.01,-51.35C141.76,-54.85 149.37,-59.03 156,-64 189.28,-88.94 216.83,-128.17 234.06,-156.62"/>
<polygon fill="black" stroke="black" points="231.18,-158.63 239.28,-165.45 237.2,-155.07 231.18,-158.63"/>
</g>
<!-- MPSoC_NoC&#45;&gt;SoC_OR1K -->
<g id="edge16" class="edge">
<title>MPSoC_NoC&#45;&gt;SoC_OR1K</title>
<path fill="none" stroke="black" d="M134.09,-47.35C142.51,-51.34 150.32,-56.72 156,-64 201.19,-121.88 132.82,-168.61 176,-228 180.44,-234.1 186.17,-239.2 192.51,-243.46"/>
<polygon fill="black" stroke="black" points="191.08,-246.68 201.47,-248.75 194.64,-240.65 191.08,-246.68"/>
</g>
<!-- MPSoC_SPRAM -->
<g id="node8" class="node">
<title>MPSoC_SPRAM</title>
<polygon fill="none" stroke="black" points="18,-245 18,-283 146,-283 146,-245 18,-245"/>
<text text-anchor="middle" x="82" y="-267.8" font-family="Times,serif" font-size="14.00">MPSoC&#45;SPRAM</text>
<text text-anchor="middle" x="82" y="-252.8" font-family="Times,serif" font-size="14.00">Peripheral</text>
</g>
<!-- MPSoC_SPRAM&#45;&gt;MPSoC_OR1K -->
<g id="edge8" class="edge">
<title>MPSoC_SPRAM&#45;&gt;MPSoC_OR1K</title>
<path fill="none" stroke="black" d="M133.81,-244.94C141.28,-242.02 148.86,-238.98 156,-236 166.27,-231.72 177.08,-227.03 187.61,-222.35"/>
<polygon fill="black" stroke="black" points="189.07,-225.54 196.77,-218.26 186.21,-219.15 189.07,-225.54"/>
</g>
<!-- MPSoC_SPRAM&#45;&gt;SoC_OR1K -->
<g id="edge17" class="edge">
<title>MPSoC_SPRAM&#45;&gt;SoC_OR1K</title>
<path fill="none" stroke="black" d="M146,-264C160.8,-264 176.56,-264 191.32,-264"/>
<polygon fill="black" stroke="black" points="191.36,-267.5 201.36,-264 191.36,-260.5 191.36,-267.5"/>
</g>
<!-- MPSoC_SPRAM&#45;&gt;PU_OR1K -->
<g id="edge25" class="edge">
<title>MPSoC_SPRAM&#45;&gt;PU_OR1K</title>
<path fill="none" stroke="black" d="M131.79,-283.09C139.9,-286.35 148.2,-289.73 156,-293 167.65,-297.88 180.01,-303.21 191.89,-308.41"/>
<polygon fill="black" stroke="black" points="190.72,-311.72 201.28,-312.54 193.54,-305.31 190.72,-311.72"/>
</g>
<!-- MPSoC_UART -->
<g id="node9" class="node">
<title>MPSoC_UART</title>
<polygon fill="none" stroke="black" points="25,-188 25,-226 139,-226 139,-188 25,-188"/>
<text text-anchor="middle" x="82" y="-210.8" font-family="Times,serif" font-size="14.00">MPSoC&#45;UART</text>
<text text-anchor="middle" x="82" y="-195.8" font-family="Times,serif" font-size="14.00">Peripheral</text>
</g>
<!-- MPSoC_UART&#45;&gt;MPSoC_OR1K -->
<g id="edge9" class="edge">
<title>MPSoC_UART&#45;&gt;MPSoC_OR1K</title>
<path fill="none" stroke="black" d="M139.3,-202.05C154.5,-200.71 171.09,-199.25 186.8,-197.87"/>
<polygon fill="black" stroke="black" points="187.31,-201.34 196.97,-196.97 186.7,-194.36 187.31,-201.34"/>
</g>
<!-- MPSoC_UART&#45;&gt;SoC_OR1K -->
<g id="edge18" class="edge">
<title>MPSoC_UART&#45;&gt;SoC_OR1K</title>
<path fill="none" stroke="black" d="M139.3,-225.82C156,-231.41 174.39,-237.55 191.44,-243.25"/>
<polygon fill="black" stroke="black" points="190.7,-246.7 201.3,-246.55 192.92,-240.06 190.7,-246.7"/>
</g>
<!-- MPSoC_UART&#45;&gt;PU_OR1K -->
<g id="edge26" class="edge">
<title>MPSoC_UART&#45;&gt;PU_OR1K</title>
<path fill="none" stroke="black" d="M139,-222.99C145.3,-226.52 151.18,-230.8 156,-236 176.26,-257.85 156.36,-277.58 176,-300 180.77,-305.45 186.54,-310.13 192.76,-314.13"/>
<polygon fill="black" stroke="black" points="191.05,-317.19 201.45,-319.18 194.56,-311.13 191.05,-317.19"/>
</g>
<!-- MPSoC_DV -->
<g id="node13" class="node">
<title>MPSoC_DV</title>
<polygon fill="none" stroke="black" points="378,-165.5 378,-218.5 488,-218.5 488,-165.5 378,-165.5"/>
<text text-anchor="middle" x="433" y="-203.3" font-family="Times,serif" font-size="14.00">MPSoC&#45;DV</text>
<text text-anchor="middle" x="433" y="-188.3" font-family="Times,serif" font-size="14.00">Environment</text>
<text text-anchor="middle" x="433" y="-173.3" font-family="Times,serif" font-size="14.00">or1k64&#45;pvt</text>
</g>
<!-- MPSoC_OR1K&#45;&gt;MPSoC_DV -->
<g id="edge29" class="edge">
<title>MPSoC_OR1K&#45;&gt;MPSoC_DV</title>
<path fill="none" stroke="black" d="M312.32,-192C330.01,-192 349.63,-192 367.79,-192"/>
<polygon fill="black" stroke="black" points="367.99,-195.5 377.99,-192 367.99,-188.5 367.99,-195.5"/>
</g>
<!-- SoC_DV -->
<g id="node14" class="node">
<title>SoC_DV</title>
<polygon fill="none" stroke="black" points="378,-237.5 378,-290.5 488,-290.5 488,-237.5 378,-237.5"/>
<text text-anchor="middle" x="433" y="-275.3" font-family="Times,serif" font-size="14.00">SoC&#45;DV</text>
<text text-anchor="middle" x="433" y="-260.3" font-family="Times,serif" font-size="14.00">Environment</text>
<text text-anchor="middle" x="433" y="-245.3" font-family="Times,serif" font-size="14.00">or1k64&#45;pv</text>
</g>
<!-- SoC_OR1K&#45;&gt;SoC_DV -->
<g id="edge28" class="edge">
<title>SoC_OR1K&#45;&gt;SoC_DV</title>
<path fill="none" stroke="black" d="M307.5,-264C326.38,-264 347.93,-264 367.74,-264"/>
<polygon fill="black" stroke="black" points="367.92,-267.5 377.92,-264 367.92,-260.5 367.92,-267.5"/>
</g>
<!-- PU_DV -->
<g id="node15" class="node">
<title>PU_DV</title>
<polygon fill="none" stroke="black" points="378,-309.5 378,-362.5 488,-362.5 488,-309.5 378,-309.5"/>
<text text-anchor="middle" x="433" y="-347.3" font-family="Times,serif" font-size="14.00">PU&#45;DV</text>
<text text-anchor="middle" x="433" y="-332.3" font-family="Times,serif" font-size="14.00">Environment</text>
<text text-anchor="middle" x="433" y="-317.3" font-family="Times,serif" font-size="14.00">or1k64&#45;p</text>
</g>
<!-- PU_OR1K&#45;&gt;PU_DV -->
<g id="edge27" class="edge">
<title>PU_OR1K&#45;&gt;PU_DV</title>
<path fill="none" stroke="black" d="M307.5,-336C326.38,-336 347.93,-336 367.74,-336"/>
<polygon fill="black" stroke="black" points="367.92,-339.5 377.92,-336 367.92,-332.5 367.92,-339.5"/>
</g>
<!-- MPSoC_DNC -->
<g id="node16" class="node">
<title>MPSoC_DNC</title>
<polygon fill="none" stroke="black" points="545,-165.5 545,-218.5 672,-218.5 672,-165.5 545,-165.5"/>
<text text-anchor="middle" x="608.5" y="-203.3" font-family="Times,serif" font-size="14.00">MPSoC&#45;DNC</text>
<text text-anchor="middle" x="608.5" y="-188.3" font-family="Times,serif" font-size="14.00">Accelerator</text>
<text text-anchor="middle" x="608.5" y="-173.3" font-family="Times,serif" font-size="14.00">rv64&#45;pvt&#45;gcvwy</text>
</g>
<!-- MPSoC_DV&#45;&gt;MPSoC_DNC -->
<g id="edge32" class="edge">
<title>MPSoC_DV&#45;&gt;MPSoC_DNC</title>
<path fill="none" stroke="black" d="M488.42,-192C503.09,-192 519.21,-192 534.71,-192"/>
<polygon fill="black" stroke="black" points="534.79,-195.5 544.79,-192 534.79,-188.5 534.79,-195.5"/>
</g>
<!-- SoC_DNC -->
<g id="node17" class="node">
<title>SoC_DNC</title>
<polygon fill="none" stroke="black" points="548,-237.5 548,-290.5 669,-290.5 669,-237.5 548,-237.5"/>
<text text-anchor="middle" x="608.5" y="-275.3" font-family="Times,serif" font-size="14.00">SoC&#45;DNC</text>
<text text-anchor="middle" x="608.5" y="-260.3" font-family="Times,serif" font-size="14.00">Accelerator</text>
<text text-anchor="middle" x="608.5" y="-245.3" font-family="Times,serif" font-size="14.00">rv64&#45;pv&#45;gcvwy</text>
</g>
<!-- SoC_DV&#45;&gt;SoC_DNC -->
<g id="edge31" class="edge">
<title>SoC_DV&#45;&gt;SoC_DNC</title>
<path fill="none" stroke="black" d="M488.42,-264C504.06,-264 521.33,-264 537.75,-264"/>
<polygon fill="black" stroke="black" points="537.85,-267.5 547.85,-264 537.85,-260.5 537.85,-267.5"/>
</g>
<!-- PU_DNC -->
<g id="node18" class="node">
<title>PU_DNC</title>
<polygon fill="none" stroke="black" points="552,-309.5 552,-362.5 665,-362.5 665,-309.5 552,-309.5"/>
<text text-anchor="middle" x="608.5" y="-347.3" font-family="Times,serif" font-size="14.00">PU&#45;DNC</text>
<text text-anchor="middle" x="608.5" y="-332.3" font-family="Times,serif" font-size="14.00">Accelerator</text>
<text text-anchor="middle" x="608.5" y="-317.3" font-family="Times,serif" font-size="14.00">rv64&#45;p&#45;gcvwy</text>
</g>
<!-- PU_DV&#45;&gt;PU_DNC -->
<g id="edge30" class="edge">
<title>PU_DV&#45;&gt;PU_DNC</title>
<path fill="none" stroke="black" d="M488.42,-336C505.28,-336 524.05,-336 541.61,-336"/>
<polygon fill="black" stroke="black" points="541.78,-339.5 551.78,-336 541.78,-332.5 541.78,-339.5"/>
</g>
<!-- MPSoC_EnergyTech -->
<g id="node19" class="node">
<title>MPSoC_EnergyTech</title>
<polygon fill="none" stroke="black" points="714,-131 714,-169 872,-169 872,-131 714,-131"/>
<text text-anchor="middle" x="793" y="-153.8" font-family="Times,serif" font-size="14.00">MPSoC&#45;EnergyTech</text>
<text text-anchor="middle" x="793" y="-138.8" font-family="Times,serif" font-size="14.00">Target</text>
</g>
<!-- MPSoC_DNC&#45;&gt;MPSoC_EnergyTech -->
<g id="edge35" class="edge">
<title>MPSoC_DNC&#45;&gt;MPSoC_EnergyTech</title>
<path fill="none" stroke="black" d="M672.05,-177.6C682.32,-175.24 693.13,-172.75 703.88,-170.28"/>
<polygon fill="black" stroke="black" points="704.76,-173.67 713.72,-168.01 703.19,-166.85 704.76,-173.67"/>
</g>
<!-- MPSoC_FinTech -->
<g id="node22" class="node">
<title>MPSoC_FinTech</title>
<polygon fill="none" stroke="black" points="728,-17 728,-55 858,-55 858,-17 728,-17"/>
<text text-anchor="middle" x="793" y="-39.8" font-family="Times,serif" font-size="14.00">MPSoC&#45;FinTech</text>
<text text-anchor="middle" x="793" y="-24.8" font-family="Times,serif" font-size="14.00">Target</text>
</g>
<!-- MPSoC_DNC&#45;&gt;MPSoC_FinTech -->
<g id="edge38" class="edge">
<title>MPSoC_DNC&#45;&gt;MPSoC_FinTech</title>
<path fill="none" stroke="black" d="M622.42,-165.27C637.76,-136.27 665.99,-90.55 703,-64 707.81,-60.55 713.05,-57.52 718.51,-54.85"/>
<polygon fill="black" stroke="black" points="720.15,-57.95 727.87,-50.7 717.31,-51.55 720.15,-57.95"/>
</g>
<!-- MPSoC_DefenseTech -->
<g id="node25" class="node">
<title>MPSoC_DefenseTech</title>
<polygon fill="none" stroke="black" points="711,-74 711,-112 875,-112 875,-74 711,-74"/>
<text text-anchor="middle" x="793" y="-96.8" font-family="Times,serif" font-size="14.00">MPSoC&#45;DefenseTech</text>
<text text-anchor="middle" x="793" y="-81.8" font-family="Times,serif" font-size="14.00">Target</text>
</g>
<!-- MPSoC_DNC&#45;&gt;MPSoC_DefenseTech -->
<g id="edge41" class="edge">
<title>MPSoC_DNC&#45;&gt;MPSoC_DefenseTech</title>
<path fill="none" stroke="black" d="M639.8,-165.29C657.32,-150.91 680.32,-133.77 703,-122 707.2,-119.82 711.59,-117.76 716.08,-115.83"/>
<polygon fill="black" stroke="black" points="717.46,-119.04 725.4,-112.02 714.82,-112.56 717.46,-119.04"/>
</g>
<!-- SoC_EnergyTech -->
<g id="node20" class="node">
<title>SoC_EnergyTech</title>
<polygon fill="none" stroke="black" points="726,-245 726,-283 860,-283 860,-245 726,-245"/>
<text text-anchor="middle" x="793" y="-267.8" font-family="Times,serif" font-size="14.00">SoC&#45;EnergyTech</text>
<text text-anchor="middle" x="793" y="-252.8" font-family="Times,serif" font-size="14.00">Target</text>
</g>
<!-- SoC_DNC&#45;&gt;SoC_EnergyTech -->
<g id="edge34" class="edge">
<title>SoC_DNC&#45;&gt;SoC_EnergyTech</title>
<path fill="none" stroke="black" d="M669,-264C683.94,-264 700.16,-264 715.79,-264"/>
<polygon fill="black" stroke="black" points="715.95,-267.5 725.95,-264 715.95,-260.5 715.95,-267.5"/>
</g>
<!-- SoC_FinTech -->
<g id="node23" class="node">
<title>SoC_FinTech</title>
<polygon fill="none" stroke="black" points="740,-188 740,-226 846,-226 846,-188 740,-188"/>
<text text-anchor="middle" x="793" y="-210.8" font-family="Times,serif" font-size="14.00">SoC&#45;FinTech</text>
<text text-anchor="middle" x="793" y="-195.8" font-family="Times,serif" font-size="14.00">Target</text>
</g>
<!-- SoC_DNC&#45;&gt;SoC_FinTech -->
<g id="edge37" class="edge">
<title>SoC_DNC&#45;&gt;SoC_FinTech</title>
<path fill="none" stroke="black" d="M669,-245.41C688.58,-239.3 710.38,-232.49 730.13,-226.32"/>
<polygon fill="black" stroke="black" points="731.44,-229.58 739.95,-223.26 729.36,-222.9 731.44,-229.58"/>
</g>
<!-- SoC_DefenseTech -->
<g id="node26" class="node">
<title>SoC_DefenseTech</title>
<polygon fill="none" stroke="black" points="723,-302 723,-340 863,-340 863,-302 723,-302"/>
<text text-anchor="middle" x="793" y="-324.8" font-family="Times,serif" font-size="14.00">SoC&#45;DefenseTech</text>
<text text-anchor="middle" x="793" y="-309.8" font-family="Times,serif" font-size="14.00">Target</text>
</g>
<!-- SoC_DNC&#45;&gt;SoC_DefenseTech -->
<g id="edge40" class="edge">
<title>SoC_DNC&#45;&gt;SoC_DefenseTech</title>
<path fill="none" stroke="black" d="M669,-282.59C685.61,-287.77 703.82,-293.46 721.02,-298.83"/>
<polygon fill="black" stroke="black" points="720.42,-302.31 731.01,-301.95 722.51,-295.63 720.42,-302.31"/>
</g>
<!-- PU_EnergyTech -->
<g id="node21" class="node">
<title>PU_EnergyTech</title>
<polygon fill="none" stroke="black" points="730,-473 730,-511 856,-511 856,-473 730,-473"/>
<text text-anchor="middle" x="793" y="-495.8" font-family="Times,serif" font-size="14.00">PU&#45;EnergyTech</text>
<text text-anchor="middle" x="793" y="-480.8" font-family="Times,serif" font-size="14.00">Target</text>
</g>
<!-- PU_DNC&#45;&gt;PU_EnergyTech -->
<g id="edge33" class="edge">
<title>PU_DNC&#45;&gt;PU_EnergyTech</title>
<path fill="none" stroke="black" d="M622.42,-362.73C637.76,-391.73 665.99,-437.45 703,-464 708.27,-467.78 714.07,-471.06 720.1,-473.91"/>
<polygon fill="black" stroke="black" points="719.16,-477.32 729.73,-478.04 721.91,-470.88 719.16,-477.32"/>
</g>
<!-- PU_FinTech -->
<g id="node24" class="node">
<title>PU_FinTech</title>
<polygon fill="none" stroke="black" points="744,-416 744,-454 842,-454 842,-416 744,-416"/>
<text text-anchor="middle" x="793" y="-438.8" font-family="Times,serif" font-size="14.00">PU&#45;FinTech</text>
<text text-anchor="middle" x="793" y="-423.8" font-family="Times,serif" font-size="14.00">Target</text>
</g>
<!-- PU_DNC&#45;&gt;PU_FinTech -->
<g id="edge36" class="edge">
<title>PU_DNC&#45;&gt;PU_FinTech</title>
<path fill="none" stroke="black" d="M638.87,-362.51C656.45,-377.27 679.82,-395.02 703,-407 712.69,-412.01 723.45,-416.33 734.04,-419.96"/>
<polygon fill="black" stroke="black" points="733.09,-423.33 743.68,-423.11 735.26,-416.68 733.09,-423.33"/>
</g>
<!-- PU_DefenseTech -->
<g id="node27" class="node">
<title>PU_DefenseTech</title>
<polygon fill="none" stroke="black" points="727,-359 727,-397 859,-397 859,-359 727,-359"/>
<text text-anchor="middle" x="793" y="-381.8" font-family="Times,serif" font-size="14.00">PU&#45;DefenseTech</text>
<text text-anchor="middle" x="793" y="-366.8" font-family="Times,serif" font-size="14.00">Target</text>
</g>
<!-- PU_DNC&#45;&gt;PU_DefenseTech -->
<g id="edge39" class="edge">
<title>PU_DNC&#45;&gt;PU_DefenseTech</title>
<path fill="none" stroke="black" d="M665.25,-348.83C681.55,-352.58 699.63,-356.74 716.92,-360.72"/>
<polygon fill="black" stroke="black" points="716.46,-364.21 726.99,-363.04 718.03,-357.39 716.46,-364.21"/>
</g>
</g>
</svg>
